<svg width="107" height="75" viewBox="0 0 107 75" fill="none" xmlns="http://www.w3.org/2000/svg">
<path d="M8.128 32.512C6.848 32.512 5.70667 32.288 4.704 31.84C3.72267 31.392 2.96533 30.8373 2.432 30.176C1.92 29.4933 1.664 28.8213 1.664 28.16C1.664 27.648 1.80267 27.232 2.08 26.912C2.35733 26.5707 2.74133 26.4 3.232 26.4C3.72267 26.4 4.07467 26.56 4.288 26.88C4.52267 27.1787 4.64 27.4987 4.64 27.84C4.64 28.2027 4.52267 28.6187 4.288 29.088C4.416 29.792 4.864 30.336 5.632 30.72C6.4 31.0827 7.21067 31.264 8.064 31.264C9.57867 31.264 10.72 30.7413 11.488 29.696C12.2773 28.6507 12.672 27.3707 12.672 25.856C12.672 21.6533 11.0187 19.552 7.712 19.552C7.11467 19.552 6.38933 19.6587 5.536 19.872C4.68267 20.0853 4 20.352 3.488 20.672L2.592 19.84L2.528 9.6H10.816C12.0107 9.6 12.8427 9.44 13.312 9.12C13.7813 8.8 14.016 8.26667 14.016 7.52H14.88L14.688 11.744L4 11.968V19.008C4.59733 18.752 5.30133 18.5387 6.112 18.368C6.944 18.1973 7.78667 18.112 8.64 18.112C10.304 18.112 11.68 18.4533 12.768 19.136C13.8773 19.8187 14.688 20.704 15.2 21.792C15.7333 22.88 16 24.0427 16 25.28C16 26.7947 15.6373 28.1067 14.912 29.216C14.208 30.304 13.2587 31.1253 12.064 31.68C10.8693 32.2347 9.55733 32.512 8.128 32.512ZM27.3583 32.512C24.3929 32.512 22.2916 31.3813 21.0543 29.12C19.8169 26.8587 19.1983 24.1173 19.1983 20.896C19.1983 18.9547 19.4863 17.088 20.0623 15.296C20.6596 13.4827 21.5769 12 22.8143 10.848C24.0516 9.67467 25.6089 9.088 27.4863 9.088C29.4276 9.088 30.9956 9.664 32.1903 10.816C33.3849 11.9467 34.2383 13.3867 34.7503 15.136C35.2623 16.8853 35.5183 18.752 35.5183 20.736C35.5183 22.656 35.2303 24.512 34.6543 26.304C34.0996 28.096 33.2036 29.5787 31.9663 30.752C30.7503 31.9253 29.2143 32.512 27.3583 32.512ZM27.5503 31.264C29.2143 31.264 30.4089 30.3147 31.1343 28.416C31.8596 26.496 32.2223 24.16 32.2223 21.408C32.2223 18.336 31.8489 15.7227 31.1023 13.568C30.3769 11.392 29.1503 10.304 27.4223 10.304C25.7156 10.304 24.4676 11.2747 23.6783 13.216C22.8889 15.1573 22.4943 17.4933 22.4943 20.224C22.4943 23.0827 22.8676 25.6427 23.6143 27.904C24.3823 30.144 25.6943 31.264 27.5503 31.264ZM47.2333 32.512C44.2679 32.512 42.1666 31.3813 40.9293 29.12C39.6919 26.8587 39.0733 24.1173 39.0733 20.896C39.0733 18.9547 39.3613 17.088 39.9373 15.296C40.5346 13.4827 41.4519 12 42.6893 10.848C43.9266 9.67467 45.4839 9.088 47.3613 9.088C49.3026 9.088 50.8706 9.664 52.0653 10.816C53.2599 11.9467 54.1133 13.3867 54.6253 15.136C55.1373 16.8853 55.3933 18.752 55.3933 20.736C55.3933 22.656 55.1053 24.512 54.5293 26.304C53.9746 28.096 53.0786 29.5787 51.8413 30.752C50.6253 31.9253 49.0893 32.512 47.2333 32.512ZM47.4253 31.264C49.0893 31.264 50.2839 30.3147 51.0093 28.416C51.7346 26.496 52.0973 24.16 52.0973 21.408C52.0973 18.336 51.7239 15.7227 50.9773 13.568C50.2519 11.392 49.0253 10.304 47.2973 10.304C45.5906 10.304 44.3426 11.2747 43.5533 13.216C42.7639 15.1573 42.3693 17.4933 42.3693 20.224C42.3693 23.0827 42.7426 25.6427 43.4893 27.904C44.2573 30.144 45.5693 31.264 47.4253 31.264ZM64.3563 22.784L58.2763 22.816V20.896L64.3563 20.928V14.624H66.4363V20.928L72.5163 20.96V22.752L66.4363 22.784V29.376H64.3563V22.784Z" fill="#10375C"/>
<path d="M13.392 56.536V68H12.032V59.576C12.032 59.464 12.0347 59.344 12.04 59.216C12.0507 59.088 12.0613 58.9573 12.072 58.824L8.136 65.992C8.01333 66.232 7.82667 66.352 7.576 66.352H7.352C7.10133 66.352 6.91467 66.232 6.792 65.992L2.776 58.792C2.808 59.0747 2.824 59.336 2.824 59.576V68H1.464V56.536H2.608C2.74667 56.536 2.85333 56.5493 2.928 56.576C3.00267 56.6027 3.07467 56.6773 3.144 56.8L7.104 63.856C7.168 63.984 7.22933 64.1173 7.288 64.256C7.352 64.3947 7.41067 64.536 7.464 64.68C7.51733 64.536 7.57333 64.3947 7.632 64.256C7.69067 64.112 7.75467 63.976 7.824 63.848L11.712 56.8C11.776 56.6773 11.8453 56.6027 11.92 56.576C12 56.5493 12.1093 56.536 12.248 56.536H13.392ZM21.1614 63.064C21.1614 62.7333 21.1134 62.432 21.0174 62.16C20.9267 61.8827 20.7907 61.6453 20.6094 61.448C20.4334 61.2453 20.2174 61.0907 19.9614 60.984C19.7054 60.872 19.4147 60.816 19.0894 60.816C18.4067 60.816 17.8654 61.016 17.4654 61.416C17.0707 61.8107 16.8254 62.36 16.7294 63.064H21.1614ZM22.3134 66.864C22.1374 67.0773 21.9267 67.264 21.6814 67.424C21.436 67.5787 21.172 67.7067 20.8894 67.808C20.612 67.9093 20.324 67.984 20.0254 68.032C19.7267 68.0853 19.4307 68.112 19.1374 68.112C18.5774 68.112 18.06 68.0187 17.5854 67.832C17.116 67.64 16.708 67.3627 16.3614 67C16.02 66.632 15.7534 66.1787 15.5614 65.64C15.3694 65.1013 15.2734 64.4827 15.2734 63.784C15.2734 63.2187 15.3587 62.6907 15.5294 62.2C15.7054 61.7093 15.956 61.2853 16.2814 60.928C16.6067 60.5653 17.004 60.2827 17.4734 60.08C17.9427 59.872 18.4707 59.768 19.0574 59.768C19.5427 59.768 19.9907 59.8507 20.4014 60.016C20.8174 60.176 21.1747 60.4107 21.4734 60.72C21.7774 61.024 22.0147 61.4027 22.1854 61.856C22.356 62.304 22.4414 62.816 22.4414 63.392C22.4414 63.616 22.4174 63.7653 22.3694 63.84C22.3214 63.9147 22.2307 63.952 22.0974 63.952H16.6814C16.6974 64.464 16.7667 64.9093 16.8894 65.288C17.0174 65.6667 17.1934 65.984 17.4174 66.24C17.6414 66.4907 17.908 66.68 18.2174 66.808C18.5267 66.9307 18.8734 66.992 19.2574 66.992C19.6147 66.992 19.9214 66.952 20.1774 66.872C20.4387 66.7867 20.6627 66.696 20.8494 66.6C21.036 66.504 21.1907 66.416 21.3134 66.336C21.4414 66.2507 21.5507 66.208 21.6414 66.208C21.7587 66.208 21.8494 66.2533 21.9134 66.344L22.3134 66.864ZM29.6145 63.064C29.6145 62.7333 29.5665 62.432 29.4705 62.16C29.3798 61.8827 29.2438 61.6453 29.0625 61.448C28.8865 61.2453 28.6705 61.0907 28.4145 60.984C28.1585 60.872 27.8678 60.816 27.5425 60.816C26.8598 60.816 26.3185 61.016 25.9185 61.416C25.5238 61.8107 25.2785 62.36 25.1825 63.064H29.6145ZM30.7665 66.864C30.5905 67.0773 30.3798 67.264 30.1345 67.424C29.8892 67.5787 29.6252 67.7067 29.3425 67.808C29.0652 67.9093 28.7772 67.984 28.4785 68.032C28.1798 68.0853 27.8838 68.112 27.5905 68.112C27.0305 68.112 26.5132 68.0187 26.0385 67.832C25.5692 67.64 25.1612 67.3627 24.8145 67C24.4732 66.632 24.2065 66.1787 24.0145 65.64C23.8225 65.1013 23.7265 64.4827 23.7265 63.784C23.7265 63.2187 23.8118 62.6907 23.9825 62.2C24.1585 61.7093 24.4092 61.2853 24.7345 60.928C25.0598 60.5653 25.4572 60.2827 25.9265 60.08C26.3958 59.872 26.9238 59.768 27.5105 59.768C27.9958 59.768 28.4438 59.8507 28.8545 60.016C29.2705 60.176 29.6278 60.4107 29.9265 60.72C30.2305 61.024 30.4678 61.4027 30.6385 61.856C30.8092 62.304 30.8945 62.816 30.8945 63.392C30.8945 63.616 30.8705 63.7653 30.8225 63.84C30.7745 63.9147 30.6838 63.952 30.5505 63.952H25.1345C25.1505 64.464 25.2198 64.9093 25.3425 65.288C25.4705 65.6667 25.6465 65.984 25.8705 66.24C26.0945 66.4907 26.3612 66.68 26.6705 66.808C26.9798 66.9307 27.3265 66.992 27.7105 66.992C28.0678 66.992 28.3745 66.952 28.6305 66.872C28.8918 66.7867 29.1158 66.696 29.3025 66.6C29.4892 66.504 29.6438 66.416 29.7665 66.336C29.8945 66.2507 30.0038 66.208 30.0945 66.208C30.2118 66.208 30.3025 66.2533 30.3665 66.344L30.7665 66.864ZM40.1011 68H38.6771V61.088H34.5011V65.952C34.5011 66.2933 34.5838 66.5467 34.7491 66.712C34.9145 66.8773 35.1278 66.96 35.3891 66.96C35.5385 66.96 35.6665 66.9413 35.7731 66.904C35.8851 66.8613 35.9811 66.816 36.0611 66.768C36.1411 66.72 36.2078 66.6773 36.2611 66.64C36.3198 66.5973 36.3705 66.576 36.4131 66.576C36.4878 66.576 36.5545 66.6213 36.6131 66.712L37.0291 67.392C36.7838 67.6213 36.4878 67.8027 36.1411 67.936C35.7945 68.064 35.4371 68.128 35.0691 68.128C34.4291 68.128 33.9358 67.9493 33.5891 67.592C33.2478 67.2347 33.0771 66.72 33.0771 66.048V61.088H32.1011C32.0158 61.088 31.9438 61.064 31.8851 61.016C31.8265 60.9627 31.7971 60.8827 31.7971 60.776V60.208L33.1251 60.032L33.4531 57.536C33.4691 57.456 33.5038 57.392 33.5571 57.344C33.6158 57.2907 33.6905 57.264 33.7811 57.264H34.5011V60.056H40.1011V68ZM40.4531 57.296C40.4531 57.4347 40.4238 57.5653 40.3651 57.688C40.3118 57.8053 40.2371 57.9093 40.1411 58C40.0505 58.0907 39.9438 58.1627 39.8211 58.216C39.6985 58.2693 39.5678 58.296 39.4291 58.296C39.2905 58.296 39.1598 58.2693 39.0371 58.216C38.9198 58.1627 38.8158 58.0907 38.7251 58C38.6345 57.9093 38.5625 57.8053 38.5091 57.688C38.4558 57.5653 38.4291 57.4347 38.4291 57.296C38.4291 57.1573 38.4558 57.0267 38.5091 56.904C38.5625 56.776 38.6345 56.6667 38.7251 56.576C38.8158 56.48 38.9198 56.4053 39.0371 56.352C39.1598 56.2987 39.2905 56.272 39.4291 56.272C39.5678 56.272 39.6985 56.2987 39.8211 56.352C39.9438 56.4053 40.0505 56.48 40.1411 56.576C40.2371 56.6667 40.3118 56.776 40.3651 56.904C40.4238 57.0267 40.4531 57.1573 40.4531 57.296ZM43.7845 61.072C43.9605 60.8747 44.1472 60.696 44.3445 60.536C44.5418 60.376 44.7498 60.24 44.9685 60.128C45.1925 60.0107 45.4272 59.9227 45.6725 59.864C45.9232 59.8 46.1925 59.768 46.4805 59.768C46.9232 59.768 47.3125 59.8427 47.6485 59.992C47.9898 60.136 48.2725 60.344 48.4965 60.616C48.7258 60.8827 48.8992 61.2053 49.0165 61.584C49.1338 61.9627 49.1925 62.3813 49.1925 62.84V68H47.7605V62.84C47.7605 62.2267 47.6192 61.752 47.3365 61.416C47.0592 61.0747 46.6352 60.904 46.0645 60.904C45.6432 60.904 45.2485 61.0053 44.8805 61.208C44.5178 61.4107 44.1818 61.6853 43.8725 62.032V68H42.4405V59.896H43.2965C43.4992 59.896 43.6245 59.9947 43.6725 60.192L43.7845 61.072ZM54.1864 64.04C54.4744 64.04 54.7277 64 54.9464 63.92C55.165 63.84 55.349 63.728 55.4984 63.584C55.6477 63.44 55.7597 63.2693 55.8344 63.072C55.909 62.8693 55.9464 62.648 55.9464 62.408C55.9464 61.912 55.7944 61.5173 55.4904 61.224C55.1917 60.9307 54.757 60.784 54.1864 60.784C53.6104 60.784 53.1704 60.9307 52.8664 61.224C52.5677 61.5173 52.4184 61.912 52.4184 62.408C52.4184 62.648 52.4557 62.8693 52.5304 63.072C52.6104 63.2693 52.725 63.44 52.8744 63.584C53.0237 63.728 53.2077 63.84 53.4264 63.92C53.645 64 53.8984 64.04 54.1864 64.04ZM56.7544 68.44C56.7544 68.2427 56.6984 68.0827 56.5864 67.96C56.4744 67.8373 56.3224 67.7413 56.1304 67.672C55.9437 67.6027 55.725 67.5547 55.4744 67.528C55.2237 67.496 54.957 67.472 54.6744 67.456C54.397 67.44 54.1144 67.424 53.8264 67.408C53.5384 67.392 53.261 67.3653 52.9944 67.328C52.6957 67.4667 52.4504 67.6427 52.2584 67.856C52.0717 68.064 51.9784 68.3093 51.9784 68.592C51.9784 68.7733 52.0237 68.9413 52.1144 69.096C52.2104 69.256 52.3544 69.392 52.5464 69.504C52.7384 69.6213 52.9784 69.712 53.2664 69.776C53.5597 69.8453 53.9037 69.88 54.2984 69.88C54.6824 69.88 55.0264 69.8453 55.3304 69.776C55.6344 69.7067 55.8904 69.608 56.0984 69.48C56.3117 69.352 56.4744 69.2 56.5864 69.024C56.6984 68.848 56.7544 68.6533 56.7544 68.44ZM58.2024 60.216V60.744C58.2024 60.92 58.0904 61.032 57.8664 61.08L56.9464 61.2C57.1277 61.552 57.2184 61.9413 57.2184 62.368C57.2184 62.7627 57.141 63.1227 56.9864 63.448C56.837 63.768 56.629 64.0427 56.3624 64.272C56.0957 64.5013 55.7757 64.6773 55.4024 64.8C55.029 64.9227 54.6237 64.984 54.1864 64.984C53.8077 64.984 53.4504 64.9387 53.1144 64.848C52.9437 64.9547 52.813 65.0693 52.7224 65.192C52.6317 65.3093 52.5864 65.4293 52.5864 65.552C52.5864 65.744 52.6637 65.8907 52.8184 65.992C52.9784 66.088 53.1864 66.1573 53.4424 66.2C53.6984 66.2427 53.989 66.2693 54.3144 66.28C54.645 66.2907 54.981 66.3093 55.3224 66.336C55.669 66.3573 56.005 66.3973 56.3304 66.456C56.661 66.5147 56.9544 66.6107 57.2104 66.744C57.4664 66.8773 57.6717 67.0613 57.8264 67.296C57.9864 67.5307 58.0664 67.8347 58.0664 68.208C58.0664 68.5547 57.9784 68.8907 57.8024 69.216C57.6317 69.5413 57.3837 69.8293 57.0584 70.08C56.733 70.336 56.333 70.5387 55.8584 70.688C55.389 70.8427 54.8584 70.92 54.2664 70.92C53.6744 70.92 53.157 70.8613 52.7144 70.744C52.2717 70.6267 51.9037 70.4693 51.6104 70.272C51.317 70.0747 51.0957 69.8453 50.9464 69.584C50.8024 69.328 50.7304 69.0587 50.7304 68.776C50.7304 68.376 50.8557 68.0373 51.1064 67.76C51.357 67.4827 51.701 67.2613 52.1384 67.096C51.8984 66.9893 51.7064 66.848 51.5624 66.672C51.4237 66.4907 51.3544 66.248 51.3544 65.944C51.3544 65.8267 51.3757 65.7067 51.4184 65.584C51.461 65.456 51.525 65.3307 51.6104 65.208C51.701 65.08 51.8104 64.96 51.9384 64.848C52.0664 64.736 52.2157 64.6373 52.3864 64.552C51.9864 64.328 51.6744 64.032 51.4504 63.664C51.2264 63.2907 51.1144 62.8587 51.1144 62.368C51.1144 61.9733 51.189 61.616 51.3384 61.296C51.493 60.9707 51.7064 60.696 51.9784 60.472C52.2504 60.2427 52.573 60.0667 52.9464 59.944C53.325 59.8213 53.7384 59.76 54.1864 59.76C54.5384 59.76 54.8664 59.8 55.1704 59.88C55.4744 59.9547 55.7517 60.0667 56.0024 60.216H58.2024ZM65.1206 61.52C65.3766 60.9653 65.6913 60.5333 66.0646 60.224C66.438 59.9093 66.894 59.752 67.4326 59.752C67.6033 59.752 67.766 59.7707 67.9206 59.808C68.0806 59.8453 68.222 59.904 68.3446 59.984L68.2406 61.048C68.2086 61.1813 68.1286 61.248 68.0006 61.248C67.926 61.248 67.8166 61.232 67.6726 61.2C67.5286 61.168 67.366 61.152 67.1846 61.152C66.9286 61.152 66.6993 61.1893 66.4966 61.264C66.2993 61.3387 66.1206 61.4507 65.9606 61.6C65.806 61.744 65.6646 61.9253 65.5366 62.144C65.414 62.3573 65.302 62.6027 65.2006 62.88V68H63.7686V59.896H64.5846C64.7393 59.896 64.846 59.9253 64.9046 59.984C64.9633 60.0427 65.0033 60.144 65.0246 60.288L65.1206 61.52ZM72.6846 59.768C73.2766 59.768 73.81 59.8667 74.2846 60.064C74.7593 60.2613 75.1646 60.5413 75.5006 60.904C75.8366 61.2667 76.0926 61.7067 76.2686 62.224C76.45 62.736 76.5406 63.3093 76.5406 63.944C76.5406 64.584 76.45 65.16 76.2686 65.672C76.0926 66.184 75.8366 66.6213 75.5006 66.984C75.1646 67.3467 74.7593 67.6267 74.2846 67.824C73.81 68.016 73.2766 68.112 72.6846 68.112C72.0873 68.112 71.5486 68.016 71.0686 67.824C70.594 67.6267 70.1886 67.3467 69.8526 66.984C69.5166 66.6213 69.258 66.184 69.0766 65.672C68.9006 65.16 68.8126 64.584 68.8126 63.944C68.8126 63.3093 68.9006 62.736 69.0766 62.224C69.258 61.7067 69.5166 61.2667 69.8526 60.904C70.1886 60.5413 70.594 60.2613 71.0686 60.064C71.5486 59.8667 72.0873 59.768 72.6846 59.768ZM72.6846 67C73.4846 67 74.082 66.7333 74.4766 66.2C74.8713 65.6613 75.0686 64.912 75.0686 63.952C75.0686 62.9867 74.8713 62.2347 74.4766 61.696C74.082 61.1573 73.4846 60.888 72.6846 60.888C72.2793 60.888 71.9246 60.9573 71.6206 61.096C71.322 61.2347 71.0713 61.4347 70.8686 61.696C70.6713 61.9573 70.522 62.28 70.4206 62.664C70.3246 63.0427 70.2766 63.472 70.2766 63.952C70.2766 64.912 70.474 65.6613 70.8686 66.2C71.2686 66.7333 71.874 67 72.6846 67ZM81.7628 59.768C82.3548 59.768 82.8881 59.8667 83.3628 60.064C83.8374 60.2613 84.2428 60.5413 84.5788 60.904C84.9148 61.2667 85.1708 61.7067 85.3468 62.224C85.5281 62.736 85.6188 63.3093 85.6188 63.944C85.6188 64.584 85.5281 65.16 85.3468 65.672C85.1708 66.184 84.9148 66.6213 84.5788 66.984C84.2428 67.3467 83.8374 67.6267 83.3628 67.824C82.8881 68.016 82.3548 68.112 81.7628 68.112C81.1654 68.112 80.6268 68.016 80.1468 67.824C79.6721 67.6267 79.2668 67.3467 78.9308 66.984C78.5948 66.6213 78.3361 66.184 78.1548 65.672C77.9788 65.16 77.8908 64.584 77.8908 63.944C77.8908 63.3093 77.9788 62.736 78.1548 62.224C78.3361 61.7067 78.5948 61.2667 78.9308 60.904C79.2668 60.5413 79.6721 60.2613 80.1468 60.064C80.6268 59.8667 81.1654 59.768 81.7628 59.768ZM81.7628 67C82.5628 67 83.1601 66.7333 83.5548 66.2C83.9494 65.6613 84.1468 64.912 84.1468 63.952C84.1468 62.9867 83.9494 62.2347 83.5548 61.696C83.1601 61.1573 82.5628 60.888 81.7628 60.888C81.3574 60.888 81.0028 60.9573 80.6988 61.096C80.4001 61.2347 80.1494 61.4347 79.9468 61.696C79.7494 61.9573 79.6001 62.28 79.4988 62.664C79.4028 63.0427 79.3548 63.472 79.3548 63.952C79.3548 64.912 79.5521 65.6613 79.9468 66.2C80.3468 66.7333 80.9521 67 81.7628 67ZM87.4249 68V59.896H88.2809C88.4835 59.896 88.6089 59.9947 88.6569 60.192L88.7609 61.024C89.0595 60.656 89.3955 60.3547 89.7689 60.12C90.1422 59.8853 90.5742 59.768 91.0649 59.768C91.6089 59.768 92.0489 59.92 92.3849 60.224C92.7262 60.528 92.9715 60.9387 93.1209 61.456C93.2382 61.1627 93.3875 60.9093 93.5689 60.696C93.7555 60.4827 93.9635 60.3067 94.1929 60.168C94.4222 60.0293 94.6649 59.928 94.9209 59.864C95.1822 59.8 95.4462 59.768 95.7129 59.768C96.1395 59.768 96.5182 59.8373 96.8489 59.976C97.1849 60.1093 97.4675 60.3067 97.6969 60.568C97.9315 60.8293 98.1102 61.152 98.2329 61.536C98.3555 61.9147 98.4169 62.3493 98.4169 62.84V68H96.9849V62.84C96.9849 62.2053 96.8462 61.7253 96.5689 61.4C96.2915 61.0693 95.8915 60.904 95.3689 60.904C95.1342 60.904 94.9102 60.9467 94.6969 61.032C94.4889 61.112 94.3049 61.232 94.1449 61.392C93.9849 61.552 93.8569 61.7547 93.7609 62C93.6702 62.24 93.6249 62.52 93.6249 62.84V68H92.1929V62.84C92.1929 62.1893 92.0622 61.704 91.8009 61.384C91.5395 61.064 91.1582 60.904 90.6569 60.904C90.3049 60.904 89.9795 61 89.6809 61.192C89.3822 61.3787 89.1075 61.6347 88.8569 61.96V68H87.4249ZM105.301 61.232C105.237 61.3493 105.138 61.408 105.005 61.408C104.925 61.408 104.834 61.3787 104.733 61.32C104.632 61.2613 104.506 61.1973 104.357 61.128C104.213 61.0533 104.04 60.9867 103.837 60.928C103.634 60.864 103.394 60.832 103.117 60.832C102.877 60.832 102.661 60.864 102.469 60.928C102.277 60.9867 102.112 61.0693 101.973 61.176C101.84 61.2827 101.736 61.408 101.661 61.552C101.592 61.6907 101.557 61.8427 101.557 62.008C101.557 62.216 101.616 62.3893 101.733 62.528C101.856 62.6667 102.016 62.7867 102.213 62.888C102.41 62.9893 102.634 63.08 102.885 63.16C103.136 63.2347 103.392 63.3173 103.653 63.408C103.92 63.4933 104.178 63.5893 104.429 63.696C104.68 63.8027 104.904 63.936 105.101 64.096C105.298 64.256 105.456 64.4533 105.573 64.688C105.696 64.9173 105.757 65.1947 105.757 65.52C105.757 65.8933 105.69 66.24 105.557 66.56C105.424 66.8747 105.226 67.1493 104.965 67.384C104.704 67.6133 104.384 67.7947 104.005 67.928C103.626 68.0613 103.189 68.128 102.693 68.128C102.128 68.128 101.616 68.0373 101.157 67.856C100.698 67.6693 100.309 67.432 99.9891 67.144L100.325 66.6C100.368 66.5307 100.418 66.4773 100.477 66.44C100.536 66.4027 100.61 66.384 100.701 66.384C100.797 66.384 100.898 66.4213 101.005 66.496C101.112 66.5707 101.24 66.6533 101.389 66.744C101.544 66.8347 101.73 66.9173 101.949 66.992C102.168 67.0667 102.44 67.104 102.765 67.104C103.042 67.104 103.285 67.0693 103.493 67C103.701 66.9253 103.874 66.8267 104.013 66.704C104.152 66.5813 104.253 66.44 104.317 66.28C104.386 66.12 104.421 65.9493 104.421 65.768C104.421 65.544 104.36 65.36 104.237 65.216C104.12 65.0667 103.962 64.9413 103.765 64.84C103.568 64.7333 103.341 64.6427 103.085 64.568C102.834 64.488 102.576 64.4053 102.309 64.32C102.048 64.2347 101.789 64.1387 101.533 64.032C101.282 63.92 101.058 63.7813 100.861 63.616C100.664 63.4507 100.504 63.248 100.381 63.008C100.264 62.7627 100.205 62.4667 100.205 62.12C100.205 61.8107 100.269 61.5147 100.397 61.232C100.525 60.944 100.712 60.6933 100.957 60.48C101.202 60.2613 101.504 60.088 101.861 59.96C102.218 59.832 102.626 59.768 103.085 59.768C103.618 59.768 104.096 59.8533 104.517 60.024C104.944 60.1893 105.312 60.4187 105.621 60.712L105.301 61.232Z" fill="#9A9A9A"/>
</svg>
