<svg width="69" height="75" viewBox="0 0 69 75" fill="none" xmlns="http://www.w3.org/2000/svg">
<path d="M9.44 32.512C6.70933 32.512 4.74667 31.5733 3.552 29.696C2.37867 27.7973 1.792 25.056 1.792 21.472C1.792 19.8293 2.03733 18.0693 2.528 16.192C3.01867 14.2933 3.91467 12.64 5.216 11.232C6.51733 9.80267 8.27733 9.088 10.496 9.088C11.6907 9.088 12.7147 9.312 13.568 9.76C14.4213 10.1867 15.0613 10.72 15.488 11.36C15.936 11.9787 16.16 12.576 16.16 13.152C16.16 13.6213 16.0427 14.016 15.808 14.336C15.5733 14.6347 15.232 14.7947 14.784 14.816C14.2933 14.8373 13.9307 14.7093 13.696 14.432C13.4613 14.1333 13.344 13.8133 13.344 13.472C13.344 13.024 13.472 12.576 13.728 12.128C13.6 11.68 13.2373 11.264 12.64 10.88C12.064 10.4747 11.3707 10.272 10.56 10.272C8.42667 10.272 6.95467 11.392 6.144 13.632C5.33333 15.8507 4.88533 18.208 4.8 20.704C5.376 19.9147 6.12267 19.2747 7.04 18.784C7.95733 18.272 9.00267 18.016 10.176 18.016C11.776 18.016 13.0773 18.368 14.08 19.072C15.104 19.776 15.8293 20.672 16.256 21.76C16.704 22.848 16.928 23.9893 16.928 25.184C16.928 26.5067 16.5973 27.7333 15.936 28.864C15.296 29.9733 14.4 30.8587 13.248 31.52C12.1173 32.1813 10.848 32.512 9.44 32.512ZM9.504 31.264C10.912 31.264 11.9573 30.752 12.64 29.728C13.344 28.704 13.696 27.424 13.696 25.888C13.696 24.2453 13.3867 22.7627 12.768 21.44C12.1707 20.1173 11.0827 19.456 9.504 19.456C8.52267 19.456 7.57333 19.808 6.656 20.512C5.76 21.216 5.152 22.0373 4.832 22.976C4.96 25.3653 5.38667 27.3493 6.112 28.928C6.83733 30.4853 7.968 31.264 9.504 31.264ZM28.452 32.512C25.4867 32.512 23.3853 31.3813 22.148 29.12C20.9107 26.8587 20.292 24.1173 20.292 20.896C20.292 18.9547 20.58 17.088 21.156 15.296C21.7533 13.4827 22.6707 12 23.908 10.848C25.1453 9.67467 26.7027 9.088 28.58 9.088C30.5213 9.088 32.0893 9.664 33.284 10.816C34.4787 11.9467 35.332 13.3867 35.844 15.136C36.356 16.8853 36.612 18.752 36.612 20.736C36.612 22.656 36.324 24.512 35.748 26.304C35.1933 28.096 34.2973 29.5787 33.06 30.752C31.844 31.9253 30.308 32.512 28.452 32.512ZM28.644 31.264C30.308 31.264 31.5027 30.3147 32.228 28.416C32.9533 26.496 33.316 24.16 33.316 21.408C33.316 18.336 32.9427 15.7227 32.196 13.568C31.4707 11.392 30.244 10.304 28.516 10.304C26.8093 10.304 25.5613 11.2747 24.772 13.216C23.9827 15.1573 23.588 17.4933 23.588 20.224C23.588 23.0827 23.9613 25.6427 24.708 27.904C25.476 30.144 26.788 31.264 28.644 31.264ZM45.575 22.784L39.495 22.816V20.896L45.575 20.928V14.624H47.655V20.928L53.735 20.96V22.752L47.655 22.784V29.376H45.575V22.784Z" fill="#10375C"/>
<path d="M9.512 65.632C9.59733 65.632 9.672 65.6667 9.736 65.736L10.352 66.4C9.88267 66.944 9.312 67.368 8.64 67.672C7.97333 67.976 7.16533 68.128 6.216 68.128C5.39467 68.128 4.648 67.9867 3.976 67.704C3.304 67.416 2.73067 67.016 2.256 66.504C1.78133 65.9867 1.41333 65.368 1.152 64.648C0.890667 63.928 0.76 63.136 0.76 62.272C0.76 61.408 0.896 60.616 1.168 59.896C1.44 59.176 1.82133 58.5573 2.312 58.04C2.808 57.5227 3.4 57.1227 4.088 56.84C4.776 56.552 5.536 56.408 6.368 56.408C7.184 56.408 7.904 56.5387 8.528 56.8C9.152 57.0613 9.70133 57.416 10.176 57.864L9.664 58.576C9.632 58.6293 9.58933 58.6747 9.536 58.712C9.488 58.744 9.42133 58.76 9.336 58.76C9.24 58.76 9.12267 58.7093 8.984 58.608C8.84533 58.5013 8.664 58.384 8.44 58.256C8.216 58.128 7.936 58.0133 7.6 57.912C7.264 57.8053 6.85067 57.752 6.36 57.752C5.768 57.752 5.22667 57.856 4.736 58.064C4.24533 58.2667 3.82133 58.5627 3.464 58.952C3.112 59.3413 2.83733 59.816 2.64 60.376C2.44267 60.936 2.344 61.568 2.344 62.272C2.344 62.9867 2.44533 63.624 2.648 64.184C2.856 64.744 3.136 65.2187 3.488 65.608C3.84533 65.992 4.264 66.2853 4.744 66.488C5.22933 66.6907 5.752 66.792 6.312 66.792C6.65333 66.792 6.96 66.7733 7.232 66.736C7.50933 66.6933 7.76267 66.6293 7.992 66.544C8.22667 66.4587 8.44267 66.352 8.64 66.224C8.84267 66.0907 9.04267 65.9333 9.24 65.752C9.33067 65.672 9.42133 65.632 9.512 65.632ZM15.0753 59.768C15.6673 59.768 16.2006 59.8667 16.6753 60.064C17.1499 60.2613 17.5553 60.5413 17.8913 60.904C18.2273 61.2667 18.4833 61.7067 18.6593 62.224C18.8406 62.736 18.9313 63.3093 18.9313 63.944C18.9313 64.584 18.8406 65.16 18.6593 65.672C18.4833 66.184 18.2273 66.6213 17.8913 66.984C17.5553 67.3467 17.1499 67.6267 16.6753 67.824C16.2006 68.016 15.6673 68.112 15.0753 68.112C14.4779 68.112 13.9393 68.016 13.4593 67.824C12.9846 67.6267 12.5793 67.3467 12.2433 66.984C11.9073 66.6213 11.6486 66.184 11.4673 65.672C11.2913 65.16 11.2033 64.584 11.2033 63.944C11.2033 63.3093 11.2913 62.736 11.4673 62.224C11.6486 61.7067 11.9073 61.2667 12.2433 60.904C12.5793 60.5413 12.9846 60.2613 13.4593 60.064C13.9393 59.8667 14.4779 59.768 15.0753 59.768ZM15.0753 67C15.8753 67 16.4726 66.7333 16.8673 66.2C17.2619 65.6613 17.4593 64.912 17.4593 63.952C17.4593 62.9867 17.2619 62.2347 16.8673 61.696C16.4726 61.1573 15.8753 60.888 15.0753 60.888C14.6699 60.888 14.3153 60.9573 14.0113 61.096C13.7126 61.2347 13.4619 61.4347 13.2593 61.696C13.0619 61.9573 12.9126 62.28 12.8113 62.664C12.7153 63.0427 12.6673 63.472 12.6673 63.952C12.6673 64.912 12.8646 65.6613 13.2593 66.2C13.6593 66.7333 14.2646 67 15.0753 67ZM27.4014 59.896V68H26.5534C26.3507 68 26.2227 67.9013 26.1694 67.704L26.0574 66.832C25.7054 67.2213 25.3107 67.536 24.8734 67.776C24.436 68.0107 23.9347 68.128 23.3694 68.128C22.9267 68.128 22.5347 68.056 22.1934 67.912C21.8574 67.7627 21.5747 67.5547 21.3454 67.288C21.116 67.0213 20.9427 66.6987 20.8254 66.32C20.7134 65.9413 20.6574 65.5227 20.6574 65.064V59.896H22.0814V65.064C22.0814 65.6773 22.22 66.152 22.4974 66.488C22.78 66.824 23.2094 66.992 23.7854 66.992C24.2067 66.992 24.5987 66.8933 24.9614 66.696C25.3294 66.4933 25.668 66.216 25.9774 65.864V59.896H27.4014ZM31.0033 61.072C31.1793 60.8747 31.3659 60.696 31.5633 60.536C31.7606 60.376 31.9686 60.24 32.1873 60.128C32.4113 60.0107 32.6459 59.9227 32.8913 59.864C33.1419 59.8 33.4113 59.768 33.6993 59.768C34.1419 59.768 34.5313 59.8427 34.8673 59.992C35.2086 60.136 35.4913 60.344 35.7153 60.616C35.9446 60.8827 36.1179 61.2053 36.2353 61.584C36.3526 61.9627 36.4113 62.3813 36.4113 62.84V68H34.9793V62.84C34.9793 62.2267 34.8379 61.752 34.5553 61.416C34.2779 61.0747 33.8539 60.904 33.2833 60.904C32.8619 60.904 32.4673 61.0053 32.0993 61.208C31.7366 61.4107 31.4006 61.6853 31.0913 62.032V68H29.6593V59.896H30.5153C30.7179 59.896 30.8433 59.9947 30.8913 60.192L31.0033 61.072ZM40.9598 68.128C40.3198 68.128 39.8264 67.9493 39.4798 67.592C39.1384 67.2347 38.9678 66.72 38.9678 66.048V61.088H37.9918C37.9064 61.088 37.8344 61.064 37.7758 61.016C37.7171 60.9627 37.6878 60.8827 37.6878 60.776V60.208L39.0158 60.04L39.3438 57.536C39.3598 57.456 39.3944 57.392 39.4478 57.344C39.5064 57.2907 39.5811 57.264 39.6718 57.264H40.3918V60.056H42.7358V61.088H40.3918V65.952C40.3918 66.2933 40.4744 66.5467 40.6398 66.712C40.8051 66.8773 41.0184 66.96 41.2798 66.96C41.4291 66.96 41.5571 66.9413 41.6638 66.904C41.7758 66.8613 41.8718 66.816 41.9518 66.768C42.0318 66.72 42.0984 66.6773 42.1518 66.64C42.2104 66.5973 42.2611 66.576 42.3038 66.576C42.3784 66.576 42.4451 66.6213 42.5038 66.712L42.9198 67.392C42.6744 67.6213 42.3784 67.8027 42.0318 67.936C41.6851 68.064 41.3278 68.128 40.9598 68.128ZM45.5581 61.52C45.8141 60.9653 46.1288 60.5333 46.5021 60.224C46.8755 59.9093 47.3315 59.752 47.8701 59.752C48.0408 59.752 48.2035 59.7707 48.3581 59.808C48.5181 59.8453 48.6595 59.904 48.7821 59.984L48.6781 61.048C48.6461 61.1813 48.5661 61.248 48.4381 61.248C48.3635 61.248 48.2541 61.232 48.1101 61.2C47.9661 61.168 47.8035 61.152 47.6221 61.152C47.3661 61.152 47.1368 61.1893 46.9341 61.264C46.7368 61.3387 46.5581 61.4507 46.3981 61.6C46.2435 61.744 46.1021 61.9253 45.9741 62.144C45.8515 62.3573 45.7395 62.6027 45.6381 62.88V68H44.2061V59.896H45.0221C45.1768 59.896 45.2835 59.9253 45.3421 59.984C45.4008 60.0427 45.4408 60.144 45.4621 60.288L45.5581 61.52ZM51.5383 59.896V68H50.1143V59.896H51.5383ZM51.8423 57.352C51.8423 57.4907 51.8129 57.6213 51.7543 57.744C51.7009 57.8613 51.6263 57.968 51.5303 58.064C51.4396 58.1547 51.3303 58.2267 51.2023 58.28C51.0796 58.3333 50.9489 58.36 50.8103 58.36C50.6716 58.36 50.5409 58.3333 50.4183 58.28C50.3009 58.2267 50.1969 58.1547 50.1063 58.064C50.0156 57.968 49.9436 57.8613 49.8903 57.744C49.8369 57.6213 49.8103 57.4907 49.8103 57.352C49.8103 57.2133 49.8369 57.0827 49.8903 56.96C49.9436 56.832 50.0156 56.7227 50.1063 56.632C50.1969 56.536 50.3009 56.4613 50.4183 56.408C50.5409 56.3547 50.6716 56.328 50.8103 56.328C50.9489 56.328 51.0796 56.3547 51.2023 56.408C51.3303 56.4613 51.4396 56.536 51.5303 56.632C51.6263 56.7227 51.7009 56.832 51.7543 56.96C51.8129 57.0827 51.8423 57.2133 51.8423 57.352ZM59.302 63.064C59.302 62.7333 59.254 62.432 59.158 62.16C59.0673 61.8827 58.9313 61.6453 58.75 61.448C58.574 61.2453 58.358 61.0907 58.102 60.984C57.846 60.872 57.5553 60.816 57.23 60.816C56.5473 60.816 56.006 61.016 55.606 61.416C55.2113 61.8107 54.966 62.36 54.87 63.064H59.302ZM60.454 66.864C60.278 67.0773 60.0673 67.264 59.822 67.424C59.5767 67.5787 59.3127 67.7067 59.03 67.808C58.7527 67.9093 58.4647 67.984 58.166 68.032C57.8673 68.0853 57.5713 68.112 57.278 68.112C56.718 68.112 56.2007 68.0187 55.726 67.832C55.2567 67.64 54.8487 67.3627 54.502 67C54.1607 66.632 53.894 66.1787 53.702 65.64C53.51 65.1013 53.414 64.4827 53.414 63.784C53.414 63.2187 53.4993 62.6907 53.67 62.2C53.846 61.7093 54.0967 61.2853 54.422 60.928C54.7473 60.5653 55.1447 60.2827 55.614 60.08C56.0833 59.872 56.6113 59.768 57.198 59.768C57.6833 59.768 58.1313 59.8507 58.542 60.016C58.958 60.176 59.3153 60.4107 59.614 60.72C59.918 61.024 60.1553 61.4027 60.326 61.856C60.4967 62.304 60.582 62.816 60.582 63.392C60.582 63.616 60.558 63.7653 60.51 63.84C60.462 63.9147 60.3713 63.952 60.238 63.952H54.822C54.838 64.464 54.9073 64.9093 55.03 65.288C55.158 65.6667 55.334 65.984 55.558 66.24C55.782 66.4907 56.0487 66.68 56.358 66.808C56.6673 66.9307 57.014 66.992 57.398 66.992C57.7553 66.992 58.062 66.952 58.318 66.872C58.5793 66.7867 58.8033 66.696 58.99 66.6C59.1767 66.504 59.3313 66.416 59.454 66.336C59.582 66.2507 59.6913 66.208 59.782 66.208C59.8993 66.208 59.99 66.2533 60.054 66.344L60.454 66.864ZM67.0511 61.232C66.9871 61.3493 66.8885 61.408 66.7551 61.408C66.6751 61.408 66.5845 61.3787 66.4831 61.32C66.3818 61.2613 66.2565 61.1973 66.1071 61.128C65.9631 61.0533 65.7898 60.9867 65.5871 60.928C65.3845 60.864 65.1445 60.832 64.8671 60.832C64.6271 60.832 64.4111 60.864 64.2191 60.928C64.0271 60.9867 63.8618 61.0693 63.7231 61.176C63.5898 61.2827 63.4858 61.408 63.4111 61.552C63.3418 61.6907 63.3071 61.8427 63.3071 62.008C63.3071 62.216 63.3658 62.3893 63.4831 62.528C63.6058 62.6667 63.7658 62.7867 63.9631 62.888C64.1605 62.9893 64.3845 63.08 64.6351 63.16C64.8858 63.2347 65.1418 63.3173 65.4031 63.408C65.6698 63.4933 65.9285 63.5893 66.1791 63.696C66.4298 63.8027 66.6538 63.936 66.8511 64.096C67.0485 64.256 67.2058 64.4533 67.3231 64.688C67.4458 64.9173 67.5071 65.1947 67.5071 65.52C67.5071 65.8933 67.4405 66.24 67.3071 66.56C67.1738 66.8747 66.9765 67.1493 66.7151 67.384C66.4538 67.6133 66.1338 67.7947 65.7551 67.928C65.3765 68.0613 64.9391 68.128 64.4431 68.128C63.8778 68.128 63.3658 68.0373 62.9071 67.856C62.4485 67.6693 62.0591 67.432 61.7391 67.144L62.0751 66.6C62.1178 66.5307 62.1685 66.4773 62.2271 66.44C62.2858 66.4027 62.3605 66.384 62.4511 66.384C62.5471 66.384 62.6485 66.4213 62.7551 66.496C62.8618 66.5707 62.9898 66.6533 63.1391 66.744C63.2938 66.8347 63.4805 66.9173 63.6991 66.992C63.9178 67.0667 64.1898 67.104 64.5151 67.104C64.7925 67.104 65.0351 67.0693 65.2431 67C65.4511 66.9253 65.6245 66.8267 65.7631 66.704C65.9018 66.5813 66.0031 66.44 66.0671 66.28C66.1365 66.12 66.1711 65.9493 66.1711 65.768C66.1711 65.544 66.1098 65.36 65.9871 65.216C65.8698 65.0667 65.7125 64.9413 65.5151 64.84C65.3178 64.7333 65.0911 64.6427 64.8351 64.568C64.5845 64.488 64.3258 64.4053 64.0591 64.32C63.7978 64.2347 63.5391 64.1387 63.2831 64.032C63.0325 63.92 62.8085 63.7813 62.6111 63.616C62.4138 63.4507 62.2538 63.248 62.1311 63.008C62.0138 62.7627 61.9551 62.4667 61.9551 62.12C61.9551 61.8107 62.0191 61.5147 62.1471 61.232C62.2751 60.944 62.4618 60.6933 62.7071 60.48C62.9525 60.2613 63.2538 60.088 63.6111 59.96C63.9685 59.832 64.3765 59.768 64.8351 59.768C65.3685 59.768 65.8458 59.8533 66.2671 60.024C66.6938 60.1893 67.0618 60.4187 67.3711 60.712L67.0511 61.232Z" fill="#9A9A9A"/>
</svg>
