<svg width="114" height="75" viewBox="0 0 114 75" fill="none" xmlns="http://www.w3.org/2000/svg">
<path d="M8.128 32.512C6.848 32.512 5.70667 32.288 4.704 31.84C3.72267 31.392 2.96533 30.8373 2.432 30.176C1.92 29.4933 1.664 28.8213 1.664 28.16C1.664 27.648 1.80267 27.232 2.08 26.912C2.35733 26.5707 2.74133 26.4 3.232 26.4C3.72267 26.4 4.07467 26.56 4.288 26.88C4.52267 27.1787 4.64 27.4987 4.64 27.84C4.64 28.2027 4.52267 28.6187 4.288 29.088C4.416 29.792 4.864 30.336 5.632 30.72C6.4 31.0827 7.21067 31.264 8.064 31.264C9.57867 31.264 10.72 30.7413 11.488 29.696C12.2773 28.6507 12.672 27.3707 12.672 25.856C12.672 21.6533 11.0187 19.552 7.712 19.552C7.11467 19.552 6.38933 19.6587 5.536 19.872C4.68267 20.0853 4 20.352 3.488 20.672L2.592 19.84L2.528 9.6H10.816C12.0107 9.6 12.8427 9.44 13.312 9.12C13.7813 8.8 14.016 8.26667 14.016 7.52H14.88L14.688 11.744L4 11.968V19.008C4.59733 18.752 5.30133 18.5387 6.112 18.368C6.944 18.1973 7.78667 18.112 8.64 18.112C10.304 18.112 11.68 18.4533 12.768 19.136C13.8773 19.8187 14.688 20.704 15.2 21.792C15.7333 22.88 16 24.0427 16 25.28C16 26.7947 15.6373 28.1067 14.912 29.216C14.208 30.304 13.2587 31.1253 12.064 31.68C10.8693 32.2347 9.55733 32.512 8.128 32.512ZM19.1663 30.944C19.9129 30.9227 20.4463 30.752 20.7663 30.432C21.0863 30.112 21.2676 29.7387 21.3103 29.312C21.3529 28.864 21.3743 28.096 21.3743 27.008V13.184C21.3743 12.288 21.4063 11.52 21.4703 10.88L19.1663 11.008V9.6H26.3663V10.656C25.6196 10.6773 25.0863 10.848 24.7663 11.168C24.4463 11.488 24.2649 11.872 24.2223 12.32C24.1796 12.7467 24.1583 13.504 24.1583 14.592V19.84H26.5583L30.5583 13.536C31.3476 12.3413 32.1049 11.4453 32.8303 10.848L30.8783 10.912V9.6H37.7583V10.656C36.7769 10.7413 35.9449 10.9013 35.2623 11.136C34.6009 11.3707 33.9503 11.7867 33.3103 12.384C32.6703 12.9813 31.9983 13.8453 31.2943 14.976L28.1583 19.968C28.6276 20.2667 29.0329 20.5973 29.3743 20.96C29.7156 21.3013 30.0143 21.6533 30.2703 22.016C30.5476 22.3573 30.7289 22.5813 30.8143 22.688L34.3983 27.456C35.1876 28.5013 35.8383 29.2693 36.3503 29.76C36.8836 30.2507 37.3423 30.5707 37.7263 30.72C38.1103 30.8693 38.5689 30.944 39.1023 30.944V32H35.1983C34.6436 32 33.5663 30.9547 31.9663 28.864L28.1263 23.68C27.6143 23.0187 27.1663 22.4747 26.7823 22.048C26.4196 21.6213 26.0676 21.3013 25.7263 21.088L24.1583 21.12V28.192C24.1583 29.3227 24.1263 30.1653 24.0623 30.72L26.3663 30.592V32H19.1663V30.944ZM46.45 22.784L40.37 22.816V20.896L46.45 20.928V14.624H48.53V20.928L54.61 20.96V22.752L48.53 22.784V29.376H46.45V22.784Z" fill="#10375C"/>
<path d="M7.328 58.328C7.28 58.408 7.22667 58.4693 7.168 58.512C7.11467 58.5493 7.048 58.568 6.968 58.568C6.87733 58.568 6.77067 58.5227 6.648 58.432C6.52533 58.3413 6.37067 58.2427 6.184 58.136C6.00267 58.024 5.78133 57.9227 5.52 57.832C5.264 57.7413 4.952 57.696 4.584 57.696C4.23733 57.696 3.93067 57.744 3.664 57.84C3.40267 57.9307 3.18133 58.056 3 58.216C2.824 58.376 2.69067 58.5653 2.6 58.784C2.50933 58.9973 2.464 59.2293 2.464 59.48C2.464 59.8 2.54133 60.0667 2.696 60.28C2.856 60.488 3.064 60.6667 3.32 60.816C3.58133 60.9653 3.87467 61.096 4.2 61.208C4.53067 61.3147 4.86667 61.4267 5.208 61.544C5.55467 61.6613 5.89067 61.7947 6.216 61.944C6.54667 62.088 6.84 62.272 7.096 62.496C7.35733 62.72 7.56533 62.9947 7.72 63.32C7.88 63.6453 7.96 64.0453 7.96 64.52C7.96 65.0213 7.87467 65.4933 7.704 65.936C7.53333 66.3733 7.28267 66.7547 6.952 67.08C6.62667 67.4053 6.224 67.6613 5.744 67.848C5.26933 68.0347 4.728 68.128 4.12 68.128C3.37333 68.128 2.696 67.9947 2.088 67.728C1.48 67.456 0.96 67.0907 0.528 66.632L0.976 65.896C1.01867 65.8373 1.06933 65.7893 1.128 65.752C1.192 65.7093 1.26133 65.688 1.336 65.688C1.40533 65.688 1.48267 65.7173 1.568 65.776C1.65867 65.8293 1.76 65.8987 1.872 65.984C1.984 66.0693 2.112 66.1627 2.256 66.264C2.4 66.3653 2.56267 66.4587 2.744 66.544C2.93067 66.6293 3.14133 66.7013 3.376 66.76C3.61067 66.8133 3.87467 66.84 4.168 66.84C4.536 66.84 4.864 66.7893 5.152 66.688C5.44 66.5867 5.68267 66.4453 5.88 66.264C6.08267 66.0773 6.23733 65.856 6.344 65.6C6.45067 65.344 6.504 65.0587 6.504 64.744C6.504 64.3973 6.424 64.1147 6.264 63.896C6.10933 63.672 5.904 63.4853 5.648 63.336C5.392 63.1867 5.09867 63.0613 4.768 62.96C4.43733 62.8533 4.10133 62.7467 3.76 62.64C3.41867 62.528 3.08267 62.4 2.752 62.256C2.42133 62.112 2.128 61.9253 1.872 61.696C1.616 61.4667 1.408 61.1813 1.248 60.84C1.09333 60.4933 1.016 60.0667 1.016 59.56C1.016 59.1547 1.09333 58.7627 1.248 58.384C1.408 58.0053 1.63733 57.6693 1.936 57.376C2.24 57.0827 2.61067 56.848 3.048 56.672C3.49067 56.496 3.99733 56.408 4.568 56.408C5.208 56.408 5.78933 56.5093 6.312 56.712C6.84 56.9147 7.304 57.208 7.704 57.592L7.328 58.328ZM11.9441 68.128C11.3041 68.128 10.8108 67.9493 10.4641 67.592C10.1228 67.2347 9.95213 66.72 9.95213 66.048V61.088H8.97613C8.89079 61.088 8.81879 61.064 8.76013 61.016C8.70146 60.9627 8.67213 60.8827 8.67213 60.776V60.208L10.0001 60.04L10.3281 57.536C10.3441 57.456 10.3788 57.392 10.4321 57.344C10.4908 57.2907 10.5655 57.264 10.6561 57.264H11.3761V60.056H13.7201V61.088H11.3761V65.952C11.3761 66.2933 11.4588 66.5467 11.6241 66.712C11.7895 66.8773 12.0028 66.96 12.2641 66.96C12.4135 66.96 12.5415 66.9413 12.6481 66.904C12.7601 66.8613 12.8561 66.816 12.9361 66.768C13.0161 66.72 13.0828 66.6773 13.1361 66.64C13.1948 66.5973 13.2455 66.576 13.2881 66.576C13.3628 66.576 13.4295 66.6213 13.4881 66.712L13.9041 67.392C13.6588 67.6213 13.3628 67.8027 13.0161 67.936C12.6695 68.064 12.3121 68.128 11.9441 68.128ZM19.5825 64.352C18.9265 64.3733 18.3665 64.4267 17.9025 64.512C17.4438 64.592 17.0678 64.6987 16.7745 64.832C16.4865 64.9653 16.2758 65.1227 16.1425 65.304C16.0145 65.4853 15.9505 65.688 15.9505 65.912C15.9505 66.1253 15.9852 66.3093 16.0545 66.464C16.1238 66.6187 16.2172 66.7467 16.3345 66.848C16.4572 66.944 16.5985 67.016 16.7585 67.064C16.9238 67.1067 17.0998 67.128 17.2865 67.128C17.5372 67.128 17.7665 67.104 17.9745 67.056C18.1825 67.0027 18.3772 66.928 18.5585 66.832C18.7452 66.736 18.9212 66.6213 19.0865 66.488C19.2572 66.3547 19.4225 66.2027 19.5825 66.032V64.352ZM14.9825 61.04C15.4305 60.608 15.9132 60.2853 16.4305 60.072C16.9478 59.8587 17.5212 59.752 18.1505 59.752C18.6038 59.752 19.0065 59.8267 19.3585 59.976C19.7105 60.1253 20.0065 60.3333 20.2465 60.6C20.4865 60.8667 20.6678 61.1893 20.7905 61.568C20.9132 61.9467 20.9745 62.3627 20.9745 62.816V68H20.3425C20.2038 68 20.0972 67.9787 20.0225 67.936C19.9478 67.888 19.8892 67.7973 19.8465 67.664L19.6865 66.896C19.4732 67.0933 19.2652 67.2693 19.0625 67.424C18.8598 67.5733 18.6465 67.7013 18.4225 67.808C18.1985 67.9093 17.9585 67.9867 17.7025 68.04C17.4518 68.0987 17.1718 68.128 16.8625 68.128C16.5478 68.128 16.2518 68.0853 15.9745 68C15.6972 67.9093 15.4545 67.776 15.2465 67.6C15.0438 67.424 14.8812 67.2027 14.7585 66.936C14.6412 66.664 14.5825 66.344 14.5825 65.976C14.5825 65.656 14.6705 65.3493 14.8465 65.056C15.0225 64.7573 15.3078 64.4933 15.7025 64.264C16.0972 64.0347 16.6118 63.848 17.2465 63.704C17.8812 63.5547 18.6598 63.4693 19.5825 63.448V62.816C19.5825 62.1867 19.4465 61.712 19.1745 61.392C18.9025 61.0667 18.5052 60.904 17.9825 60.904C17.6305 60.904 17.3345 60.9493 17.0945 61.04C16.8598 61.1253 16.6545 61.224 16.4785 61.336C16.3078 61.4427 16.1585 61.5413 16.0305 61.632C15.9078 61.7173 15.7852 61.76 15.6625 61.76C15.5665 61.76 15.4838 61.736 15.4145 61.688C15.3452 61.6347 15.2865 61.5707 15.2385 61.496L14.9825 61.04ZM24.4956 61.52C24.7516 60.9653 25.0663 60.5333 25.4396 60.224C25.813 59.9093 26.269 59.752 26.8076 59.752C26.9783 59.752 27.141 59.7707 27.2956 59.808C27.4556 59.8453 27.597 59.904 27.7196 59.984L27.6156 61.048C27.5836 61.1813 27.5036 61.248 27.3756 61.248C27.301 61.248 27.1916 61.232 27.0476 61.2C26.9036 61.168 26.741 61.152 26.5596 61.152C26.3036 61.152 26.0743 61.1893 25.8716 61.264C25.6743 61.3387 25.4956 61.4507 25.3356 61.6C25.181 61.744 25.0396 61.9253 24.9116 62.144C24.789 62.3573 24.677 62.6027 24.5756 62.88V68H23.1436V59.896H23.9596C24.1143 59.896 24.221 59.9253 24.2796 59.984C24.3383 60.0427 24.3783 60.144 24.3996 60.288L24.4956 61.52ZM31.4598 68.128C30.8198 68.128 30.3264 67.9493 29.9798 67.592C29.6384 67.2347 29.4678 66.72 29.4678 66.048V61.088H28.4918C28.4064 61.088 28.3344 61.064 28.2758 61.016C28.2171 60.9627 28.1878 60.8827 28.1878 60.776V60.208L29.5158 60.04L29.8438 57.536C29.8598 57.456 29.8944 57.392 29.9478 57.344C30.0064 57.2907 30.0811 57.264 30.1718 57.264H30.8918V60.056H33.2358V61.088H30.8918V65.952C30.8918 66.2933 30.9744 66.5467 31.1398 66.712C31.3051 66.8773 31.5184 66.96 31.7798 66.96C31.9291 66.96 32.0571 66.9413 32.1638 66.904C32.2758 66.8613 32.3718 66.816 32.4518 66.768C32.5318 66.72 32.5984 66.6773 32.6518 66.64C32.7104 66.5973 32.7611 66.576 32.8038 66.576C32.8784 66.576 32.9451 66.6213 33.0038 66.712L33.4198 67.392C33.1744 67.6213 32.8784 67.8027 32.5318 67.936C32.1851 68.064 31.8278 68.128 31.4598 68.128ZM41.3701 59.896V68H40.5221C40.3195 68 40.1915 67.9013 40.1381 67.704L40.0261 66.832C39.6741 67.2213 39.2795 67.536 38.8421 67.776C38.4048 68.0107 37.9035 68.128 37.3381 68.128C36.8955 68.128 36.5035 68.056 36.1621 67.912C35.8261 67.7627 35.5435 67.5547 35.3141 67.288C35.0848 67.0213 34.9115 66.6987 34.7941 66.32C34.6821 65.9413 34.6261 65.5227 34.6261 65.064V59.896H36.0501V65.064C36.0501 65.6773 36.1888 66.152 36.4661 66.488C36.7488 66.824 37.1781 66.992 37.7541 66.992C38.1755 66.992 38.5675 66.8933 38.9301 66.696C39.2981 66.4933 39.6368 66.216 39.9461 65.864V59.896H41.3701ZM45.06 66.048C45.3213 66.4 45.6067 66.648 45.916 66.792C46.2253 66.936 46.572 67.008 46.956 67.008C47.7133 67.008 48.2947 66.7387 48.7 66.2C49.1053 65.6613 49.308 64.8933 49.308 63.896C49.308 63.368 49.26 62.9147 49.164 62.536C49.0733 62.1573 48.94 61.848 48.764 61.608C48.588 61.3627 48.372 61.184 48.116 61.072C47.86 60.96 47.5693 60.904 47.244 60.904C46.78 60.904 46.372 61.0107 46.02 61.224C45.6733 61.4373 45.3533 61.7387 45.06 62.128V66.048ZM44.988 61.152C45.3293 60.7307 45.724 60.392 46.172 60.136C46.62 59.88 47.132 59.752 47.708 59.752C48.1773 59.752 48.6013 59.8427 48.98 60.024C49.3587 60.2 49.6813 60.464 49.948 60.816C50.2147 61.1627 50.42 61.5947 50.564 62.112C50.708 62.6293 50.78 63.224 50.78 63.896C50.78 64.4933 50.7 65.0507 50.54 65.568C50.38 66.08 50.148 66.5253 49.844 66.904C49.5453 67.2773 49.1773 67.5733 48.74 67.792C48.308 68.0053 47.82 68.112 47.276 68.112C46.78 68.112 46.3533 68.0293 45.996 67.864C45.644 67.6933 45.332 67.4587 45.06 67.16V70.744H43.628V59.896H44.484C44.6867 59.896 44.812 59.9947 44.86 60.192L44.988 61.152ZM56.6905 68V59.896H57.5465C57.7492 59.896 57.8745 59.9947 57.9225 60.192L58.0265 61.024C58.3252 60.656 58.6612 60.3547 59.0345 60.12C59.4078 59.8853 59.8398 59.768 60.3305 59.768C60.8745 59.768 61.3145 59.92 61.6505 60.224C61.9918 60.528 62.2372 60.9387 62.3865 61.456C62.5038 61.1627 62.6532 60.9093 62.8345 60.696C63.0212 60.4827 63.2292 60.3067 63.4585 60.168C63.6878 60.0293 63.9305 59.928 64.1865 59.864C64.4478 59.8 64.7118 59.768 64.9785 59.768C65.4052 59.768 65.7838 59.8373 66.1145 59.976C66.4505 60.1093 66.7332 60.3067 66.9625 60.568C67.1972 60.8293 67.3758 61.152 67.4985 61.536C67.6212 61.9147 67.6825 62.3493 67.6825 62.84V68H66.2505V62.84C66.2505 62.2053 66.1118 61.7253 65.8345 61.4C65.5572 61.0693 65.1572 60.904 64.6345 60.904C64.3998 60.904 64.1758 60.9467 63.9625 61.032C63.7545 61.112 63.5705 61.232 63.4105 61.392C63.2505 61.552 63.1225 61.7547 63.0265 62C62.9358 62.24 62.8905 62.52 62.8905 62.84V68H61.4585V62.84C61.4585 62.1893 61.3278 61.704 61.0665 61.384C60.8052 61.064 60.4238 60.904 59.9225 60.904C59.5705 60.904 59.2452 61 58.9465 61.192C58.6478 61.3787 58.3732 61.6347 58.1225 61.96V68H56.6905ZM75.2708 63.064C75.2708 62.7333 75.2228 62.432 75.1268 62.16C75.0361 61.8827 74.9001 61.6453 74.7188 61.448C74.5428 61.2453 74.3268 61.0907 74.0708 60.984C73.8148 60.872 73.5241 60.816 73.1988 60.816C72.5161 60.816 71.9748 61.016 71.5748 61.416C71.1801 61.8107 70.9348 62.36 70.8388 63.064H75.2708ZM76.4228 66.864C76.2468 67.0773 76.0361 67.264 75.7908 67.424C75.5454 67.5787 75.2814 67.7067 74.9988 67.808C74.7214 67.9093 74.4334 67.984 74.1348 68.032C73.8361 68.0853 73.5401 68.112 73.2468 68.112C72.6868 68.112 72.1694 68.0187 71.6948 67.832C71.2254 67.64 70.8174 67.3627 70.4708 67C70.1294 66.632 69.8628 66.1787 69.6708 65.64C69.4788 65.1013 69.3828 64.4827 69.3828 63.784C69.3828 63.2187 69.4681 62.6907 69.6388 62.2C69.8148 61.7093 70.0654 61.2853 70.3908 60.928C70.7161 60.5653 71.1134 60.2827 71.5828 60.08C72.0521 59.872 72.5801 59.768 73.1668 59.768C73.6521 59.768 74.1001 59.8507 74.5108 60.016C74.9268 60.176 75.2841 60.4107 75.5828 60.72C75.8868 61.024 76.1241 61.4027 76.2948 61.856C76.4654 62.304 76.5508 62.816 76.5508 63.392C76.5508 63.616 76.5268 63.7653 76.4788 63.84C76.4308 63.9147 76.3401 63.952 76.2068 63.952H70.7908C70.8068 64.464 70.8761 64.9093 70.9988 65.288C71.1268 65.6667 71.3028 65.984 71.5268 66.24C71.7508 66.4907 72.0174 66.68 72.3268 66.808C72.6361 66.9307 72.9828 66.992 73.3668 66.992C73.7241 66.992 74.0308 66.952 74.2868 66.872C74.5481 66.7867 74.7721 66.696 74.9588 66.6C75.1454 66.504 75.3001 66.416 75.4228 66.336C75.5508 66.2507 75.6601 66.208 75.7508 66.208C75.8681 66.208 75.9588 66.2533 76.0228 66.344L76.4228 66.864ZM79.6439 61.072C79.8199 60.8747 80.0065 60.696 80.2039 60.536C80.4012 60.376 80.6092 60.24 80.8279 60.128C81.0519 60.0107 81.2865 59.9227 81.5319 59.864C81.7825 59.8 82.0519 59.768 82.3399 59.768C82.7825 59.768 83.1719 59.8427 83.5079 59.992C83.8492 60.136 84.1319 60.344 84.3559 60.616C84.5852 60.8827 84.7585 61.2053 84.8759 61.584C84.9932 61.9627 85.0519 62.3813 85.0519 62.84V68H83.6199V62.84C83.6199 62.2267 83.4785 61.752 83.1959 61.416C82.9185 61.0747 82.4945 60.904 81.9239 60.904C81.5025 60.904 81.1079 61.0053 80.7399 61.208C80.3772 61.4107 80.0412 61.6853 79.7319 62.032V68H78.2999V59.896H79.1559C79.3585 59.896 79.4839 59.9947 79.5319 60.192L79.6439 61.072ZM89.6004 68.128C88.9604 68.128 88.467 67.9493 88.1204 67.592C87.779 67.2347 87.6084 66.72 87.6084 66.048V61.088H86.6324C86.547 61.088 86.475 61.064 86.4164 61.016C86.3577 60.9627 86.3284 60.8827 86.3284 60.776V60.208L87.6564 60.04L87.9844 57.536C88.0004 57.456 88.035 57.392 88.0884 57.344C88.147 57.2907 88.2217 57.264 88.3124 57.264H89.0324V60.056H91.3764V61.088H89.0324V65.952C89.0324 66.2933 89.115 66.5467 89.2804 66.712C89.4457 66.8773 89.659 66.96 89.9204 66.96C90.0697 66.96 90.1977 66.9413 90.3044 66.904C90.4164 66.8613 90.5124 66.816 90.5924 66.768C90.6724 66.72 90.739 66.6773 90.7924 66.64C90.851 66.5973 90.9017 66.576 90.9444 66.576C91.019 66.576 91.0857 66.6213 91.1444 66.712L91.5604 67.392C91.315 67.6213 91.019 67.8027 90.6724 67.936C90.3257 68.064 89.9684 68.128 89.6004 68.128ZM96.2159 59.768C96.8079 59.768 97.3412 59.8667 97.8159 60.064C98.2905 60.2613 98.6959 60.5413 99.0319 60.904C99.3679 61.2667 99.6239 61.7067 99.7999 62.224C99.9812 62.736 100.072 63.3093 100.072 63.944C100.072 64.584 99.9812 65.16 99.7999 65.672C99.6239 66.184 99.3679 66.6213 99.0319 66.984C98.6959 67.3467 98.2905 67.6267 97.8159 67.824C97.3412 68.016 96.8079 68.112 96.2159 68.112C95.6185 68.112 95.0799 68.016 94.5999 67.824C94.1252 67.6267 93.7199 67.3467 93.3839 66.984C93.0479 66.6213 92.7892 66.184 92.6079 65.672C92.4319 65.16 92.3439 64.584 92.3439 63.944C92.3439 63.3093 92.4319 62.736 92.6079 62.224C92.7892 61.7067 93.0479 61.2667 93.3839 60.904C93.7199 60.5413 94.1252 60.2613 94.5999 60.064C95.0799 59.8667 95.6185 59.768 96.2159 59.768ZM96.2159 67C97.0159 67 97.6132 66.7333 98.0079 66.2C98.4025 65.6613 98.5999 64.912 98.5999 63.952C98.5999 62.9867 98.4025 62.2347 98.0079 61.696C97.6132 61.1573 97.0159 60.888 96.2159 60.888C95.8105 60.888 95.4559 60.9573 95.1519 61.096C94.8532 61.2347 94.6025 61.4347 94.3999 61.696C94.2025 61.9573 94.0532 62.28 93.9519 62.664C93.8559 63.0427 93.8079 63.472 93.8079 63.952C93.8079 64.912 94.0052 65.6613 94.3999 66.2C94.7999 66.7333 95.4052 67 96.2159 67ZM103.23 61.52C103.486 60.9653 103.801 60.5333 104.174 60.224C104.547 59.9093 105.003 59.752 105.542 59.752C105.713 59.752 105.875 59.7707 106.03 59.808C106.19 59.8453 106.331 59.904 106.454 59.984L106.35 61.048C106.318 61.1813 106.238 61.248 106.11 61.248C106.035 61.248 105.926 61.232 105.782 61.2C105.638 61.168 105.475 61.152 105.294 61.152C105.038 61.152 104.809 61.1893 104.606 61.264C104.409 61.3387 104.23 61.4507 104.07 61.6C103.915 61.744 103.774 61.9253 103.646 62.144C103.523 62.3573 103.411 62.6027 103.31 62.88V68H101.878V59.896H102.694C102.849 59.896 102.955 59.9253 103.014 59.984C103.073 60.0427 103.113 60.144 103.134 60.288L103.23 61.52ZM112.379 61.232C112.315 61.3493 112.217 61.408 112.083 61.408C112.003 61.408 111.913 61.3787 111.811 61.32C111.71 61.2613 111.585 61.1973 111.435 61.128C111.291 61.0533 111.118 60.9867 110.915 60.928C110.713 60.864 110.473 60.832 110.195 60.832C109.955 60.832 109.739 60.864 109.547 60.928C109.355 60.9867 109.19 61.0693 109.051 61.176C108.918 61.2827 108.814 61.408 108.739 61.552C108.67 61.6907 108.635 61.8427 108.635 62.008C108.635 62.216 108.694 62.3893 108.811 62.528C108.934 62.6667 109.094 62.7867 109.291 62.888C109.489 62.9893 109.713 63.08 109.963 63.16C110.214 63.2347 110.47 63.3173 110.731 63.408C110.998 63.4933 111.257 63.5893 111.507 63.696C111.758 63.8027 111.982 63.936 112.179 64.096C112.377 64.256 112.534 64.4533 112.651 64.688C112.774 64.9173 112.835 65.1947 112.835 65.52C112.835 65.8933 112.769 66.24 112.635 66.56C112.502 66.8747 112.305 67.1493 112.043 67.384C111.782 67.6133 111.462 67.7947 111.083 67.928C110.705 68.0613 110.267 68.128 109.771 68.128C109.206 68.128 108.694 68.0373 108.235 67.856C107.777 67.6693 107.387 67.432 107.067 67.144L107.403 66.6C107.446 66.5307 107.497 66.4773 107.555 66.44C107.614 66.4027 107.689 66.384 107.779 66.384C107.875 66.384 107.977 66.4213 108.083 66.496C108.19 66.5707 108.318 66.6533 108.467 66.744C108.622 66.8347 108.809 66.9173 109.027 66.992C109.246 67.0667 109.518 67.104 109.843 67.104C110.121 67.104 110.363 67.0693 110.571 67C110.779 66.9253 110.953 66.8267 111.091 66.704C111.23 66.5813 111.331 66.44 111.395 66.28C111.465 66.12 111.499 65.9493 111.499 65.768C111.499 65.544 111.438 65.36 111.315 65.216C111.198 65.0667 111.041 64.9413 110.843 64.84C110.646 64.7333 110.419 64.6427 110.163 64.568C109.913 64.488 109.654 64.4053 109.387 64.32C109.126 64.2347 108.867 64.1387 108.611 64.032C108.361 63.92 108.137 63.7813 107.939 63.616C107.742 63.4507 107.582 63.248 107.459 63.008C107.342 62.7627 107.283 62.4667 107.283 62.12C107.283 61.8107 107.347 61.5147 107.475 61.232C107.603 60.944 107.79 60.6933 108.035 60.48C108.281 60.2613 108.582 60.088 108.939 59.96C109.297 59.832 109.705 59.768 110.163 59.768C110.697 59.768 111.174 59.8533 111.595 60.024C112.022 60.1893 112.39 60.4187 112.699 60.712L112.379 61.232Z" fill="#9A9A9A"/>
</svg>
