<svg width="255" height="72" viewBox="0 0 255 72" fill="none" xmlns="http://www.w3.org/2000/svg">
<rect width="255" height="72" fill="#FF5722"/>
<path d="M64.7454 39.931C64.8774 39.931 64.9944 39.982 65.0964 40.084L66.0504 41.119C65.5224 41.773 64.8714 42.274 64.0974 42.622C63.3294 42.97 62.4054 43.144 61.3254 43.144C60.3594 43.144 59.4894 42.979 58.7154 42.649C57.9474 42.319 57.2904 41.86 56.7444 41.272C56.1984 40.684 55.7784 39.982 55.4844 39.166C55.1964 38.35 55.0524 37.459 55.0524 36.493C55.0524 35.515 55.2084 34.621 55.5204 33.811C55.8324 32.995 56.2704 32.293 56.8344 31.705C57.4044 31.117 58.0824 30.661 58.8684 30.337C59.6544 30.007 60.5244 29.842 61.4784 29.842C62.4264 29.842 63.2664 29.998 63.9984 30.31C64.7364 30.622 65.3634 31.03 65.8794 31.534L65.0694 32.659C65.0214 32.731 64.9584 32.794 64.8804 32.848C64.8084 32.902 64.7064 32.929 64.5744 32.929C64.4844 32.929 64.3914 32.905 64.2954 32.857C64.1994 32.803 64.0944 32.74 63.9804 32.668C63.8664 32.59 63.7344 32.506 63.5844 32.416C63.4344 32.326 63.2604 32.245 63.0624 32.173C62.8644 32.095 62.6334 32.032 62.3694 31.984C62.1114 31.93 61.8114 31.903 61.4694 31.903C60.8874 31.903 60.3534 32.008 59.8674 32.218C59.3874 32.422 58.9734 32.722 58.6254 33.118C58.2774 33.508 58.0074 33.988 57.8154 34.558C57.6234 35.122 57.5274 35.767 57.5274 36.493C57.5274 37.225 57.6294 37.876 57.8334 38.446C58.0434 39.016 58.3254 39.496 58.6794 39.886C59.0334 40.276 59.4504 40.576 59.9304 40.786C60.4104 40.99 60.9264 41.092 61.4784 41.092C61.8084 41.092 62.1054 41.074 62.3694 41.038C62.6394 41.002 62.8854 40.945 63.1074 40.867C63.3354 40.789 63.5484 40.69 63.7464 40.57C63.9504 40.444 64.1514 40.291 64.3494 40.111C64.4094 40.057 64.4724 40.015 64.5384 39.985C64.6044 39.949 64.6734 39.931 64.7454 39.931ZM69.5808 34.756C69.9408 34.42 70.3368 34.147 70.7688 33.937C71.2008 33.727 71.7078 33.622 72.2898 33.622C72.7938 33.622 73.2408 33.709 73.6308 33.883C74.0208 34.051 74.3448 34.291 74.6028 34.603C74.8668 34.909 75.0648 35.278 75.1968 35.71C75.3348 36.136 75.4038 36.607 75.4038 37.123V43H73.1808V37.123C73.1808 36.559 73.0518 36.124 72.7938 35.818C72.5358 35.506 72.1428 35.35 71.6148 35.35C71.2308 35.35 70.8708 35.437 70.5348 35.611C70.1988 35.785 69.8808 36.022 69.5808 36.322V43H67.3578V29.626H69.5808V34.756ZM83.4669 37.321C83.4669 37.033 83.4249 36.763 83.3409 36.511C83.2629 36.253 83.1429 36.028 82.9809 35.836C82.8189 35.644 82.6119 35.494 82.3599 35.386C82.1139 35.272 81.8259 35.215 81.4959 35.215C80.8539 35.215 80.3469 35.398 79.9749 35.764C79.6089 36.13 79.3749 36.649 79.2729 37.321H83.4669ZM79.2279 38.662C79.2639 39.136 79.3479 39.547 79.4799 39.895C79.6119 40.237 79.7859 40.522 80.0019 40.75C80.2179 40.972 80.4729 41.14 80.7669 41.254C81.0669 41.362 81.3969 41.416 81.7569 41.416C82.1169 41.416 82.4259 41.374 82.6839 41.29C82.9479 41.206 83.1759 41.113 83.3679 41.011C83.5659 40.909 83.7369 40.816 83.8809 40.732C84.0309 40.648 84.1749 40.606 84.3129 40.606C84.4989 40.606 84.6369 40.675 84.7269 40.813L85.3659 41.623C85.1199 41.911 84.8439 42.154 84.5379 42.352C84.2319 42.544 83.9109 42.7 83.5749 42.82C83.2449 42.934 82.9059 43.015 82.5579 43.063C82.2159 43.111 81.8829 43.135 81.5589 43.135C80.9169 43.135 80.3199 43.03 79.7679 42.82C79.2159 42.604 78.7359 42.289 78.3279 41.875C77.9199 41.455 77.5989 40.939 77.3649 40.327C77.1309 39.709 77.0139 38.995 77.0139 38.185C77.0139 37.555 77.1159 36.964 77.3199 36.412C77.5239 35.854 77.8149 35.371 78.1929 34.963C78.5769 34.549 79.0419 34.222 79.5879 33.982C80.1399 33.742 80.7609 33.622 81.4509 33.622C82.0329 33.622 82.5699 33.715 83.0619 33.901C83.5539 34.087 83.9769 34.36 84.3309 34.72C84.6849 35.074 84.9609 35.512 85.1589 36.034C85.3629 36.55 85.4649 37.141 85.4649 37.807C85.4649 38.143 85.4289 38.371 85.3569 38.491C85.2849 38.605 85.1469 38.662 84.9429 38.662H79.2279ZM93.7482 35.719C93.6822 35.803 93.6162 35.869 93.5502 35.917C93.4902 35.965 93.4002 35.989 93.2802 35.989C93.1662 35.989 93.0552 35.956 92.9472 35.89C92.8392 35.818 92.7102 35.74 92.5602 35.656C92.4102 35.566 92.2302 35.488 92.0202 35.422C91.8162 35.35 91.5612 35.314 91.2552 35.314C90.8652 35.314 90.5232 35.386 90.2292 35.53C89.9352 35.668 89.6892 35.869 89.4912 36.133C89.2992 36.397 89.1552 36.718 89.0592 37.096C88.9632 37.468 88.9152 37.891 88.9152 38.365C88.9152 38.857 88.9662 39.295 89.0682 39.679C89.1762 40.063 89.3292 40.387 89.5272 40.651C89.7252 40.909 89.9652 41.107 90.2472 41.245C90.5292 41.377 90.8472 41.443 91.2012 41.443C91.5552 41.443 91.8402 41.401 92.0562 41.317C92.2782 41.227 92.4642 41.131 92.6142 41.029C92.7642 40.921 92.8932 40.825 93.0012 40.741C93.1152 40.651 93.2412 40.606 93.3792 40.606C93.5592 40.606 93.6942 40.675 93.7842 40.813L94.4232 41.623C94.1772 41.911 93.9102 42.154 93.6222 42.352C93.3342 42.544 93.0342 42.7 92.7222 42.82C92.4162 42.934 92.0982 43.015 91.7682 43.063C91.4442 43.111 91.1202 43.135 90.7962 43.135C90.2262 43.135 89.6892 43.03 89.1852 42.82C88.6812 42.604 88.2402 42.292 87.8622 41.884C87.4842 41.476 87.1842 40.978 86.9622 40.39C86.7462 39.796 86.6382 39.121 86.6382 38.365C86.6382 37.687 86.7342 37.06 86.9262 36.484C87.1242 35.902 87.4122 35.401 87.7902 34.981C88.1682 34.555 88.6362 34.222 89.1942 33.982C89.7522 33.742 90.3942 33.622 91.1202 33.622C91.8102 33.622 92.4132 33.733 92.9292 33.955C93.4512 34.177 93.9192 34.495 94.3332 34.909L93.7482 35.719ZM98.0398 29.626V37.285H98.4538C98.6038 37.285 98.7208 37.267 98.8048 37.231C98.8948 37.189 98.9848 37.108 99.0748 36.988L101.37 34.153C101.466 34.027 101.571 33.931 101.685 33.865C101.805 33.799 101.958 33.766 102.144 33.766H104.178L101.307 37.195C101.103 37.465 100.881 37.672 100.641 37.816C100.767 37.906 100.878 38.011 100.974 38.131C101.076 38.251 101.172 38.38 101.262 38.518L104.34 43H102.333C102.159 43 102.009 42.973 101.883 42.919C101.757 42.859 101.652 42.754 101.568 42.604L99.2098 39.103C99.1258 38.965 99.0388 38.875 98.9488 38.833C98.8588 38.791 98.7238 38.77 98.5438 38.77H98.0398V43H95.8168V29.626H98.0398ZM114.687 39.058C114.045 39.088 113.505 39.145 113.067 39.229C112.629 39.307 112.278 39.409 112.014 39.535C111.75 39.661 111.561 39.808 111.447 39.976C111.333 40.144 111.276 40.327 111.276 40.525C111.276 40.915 111.39 41.194 111.618 41.362C111.852 41.53 112.155 41.614 112.527 41.614C112.983 41.614 113.376 41.533 113.706 41.371C114.042 41.203 114.369 40.951 114.687 40.615V39.058ZM109.593 35.053C110.655 34.081 111.933 33.595 113.427 33.595C113.967 33.595 114.45 33.685 114.876 33.865C115.302 34.039 115.662 34.285 115.956 34.603C116.25 34.915 116.472 35.29 116.622 35.728C116.778 36.166 116.856 36.646 116.856 37.168V43H115.848C115.638 43 115.476 42.97 115.362 42.91C115.248 42.844 115.158 42.715 115.092 42.523L114.894 41.857C114.66 42.067 114.432 42.253 114.21 42.415C113.988 42.571 113.757 42.703 113.517 42.811C113.277 42.919 113.019 43 112.743 43.054C112.473 43.114 112.173 43.144 111.843 43.144C111.453 43.144 111.093 43.093 110.763 42.991C110.433 42.883 110.148 42.724 109.908 42.514C109.668 42.304 109.482 42.043 109.35 41.731C109.218 41.419 109.152 41.056 109.152 40.642C109.152 40.408 109.191 40.177 109.269 39.949C109.347 39.715 109.473 39.493 109.647 39.283C109.827 39.073 110.058 38.875 110.34 38.689C110.622 38.503 110.967 38.341 111.375 38.203C111.789 38.065 112.269 37.954 112.815 37.87C113.361 37.78 113.985 37.726 114.687 37.708V37.168C114.687 36.55 114.555 36.094 114.291 35.8C114.027 35.5 113.646 35.35 113.148 35.35C112.788 35.35 112.488 35.392 112.248 35.476C112.014 35.56 111.807 35.656 111.627 35.764C111.447 35.866 111.282 35.959 111.132 36.043C110.988 36.127 110.826 36.169 110.646 36.169C110.49 36.169 110.358 36.13 110.25 36.052C110.142 35.968 110.055 35.872 109.989 35.764L109.593 35.053ZM127.064 33.766L123.401 43H121.385L117.722 33.766H119.558C119.726 33.766 119.864 33.805 119.972 33.883C120.086 33.961 120.161 34.06 120.197 34.18L121.979 39.112C122.075 39.4 122.159 39.682 122.231 39.958C122.303 40.234 122.366 40.51 122.42 40.786C122.48 40.51 122.546 40.234 122.618 39.958C122.69 39.682 122.777 39.4 122.879 39.112L124.697 34.18C124.739 34.06 124.814 33.961 124.922 33.883C125.03 33.805 125.159 33.766 125.309 33.766H127.064ZM132.898 39.058C132.256 39.088 131.716 39.145 131.278 39.229C130.84 39.307 130.489 39.409 130.225 39.535C129.961 39.661 129.772 39.808 129.658 39.976C129.544 40.144 129.487 40.327 129.487 40.525C129.487 40.915 129.601 41.194 129.829 41.362C130.063 41.53 130.366 41.614 130.738 41.614C131.194 41.614 131.587 41.533 131.917 41.371C132.253 41.203 132.58 40.951 132.898 40.615V39.058ZM127.804 35.053C128.866 34.081 130.144 33.595 131.638 33.595C132.178 33.595 132.661 33.685 133.087 33.865C133.513 34.039 133.873 34.285 134.167 34.603C134.461 34.915 134.683 35.29 134.833 35.728C134.989 36.166 135.067 36.646 135.067 37.168V43H134.059C133.849 43 133.687 42.97 133.573 42.91C133.459 42.844 133.369 42.715 133.303 42.523L133.105 41.857C132.871 42.067 132.643 42.253 132.421 42.415C132.199 42.571 131.968 42.703 131.728 42.811C131.488 42.919 131.23 43 130.954 43.054C130.684 43.114 130.384 43.144 130.054 43.144C129.664 43.144 129.304 43.093 128.974 42.991C128.644 42.883 128.359 42.724 128.119 42.514C127.879 42.304 127.693 42.043 127.561 41.731C127.429 41.419 127.363 41.056 127.363 40.642C127.363 40.408 127.402 40.177 127.48 39.949C127.558 39.715 127.684 39.493 127.858 39.283C128.038 39.073 128.269 38.875 128.551 38.689C128.833 38.503 129.178 38.341 129.586 38.203C130 38.065 130.48 37.954 131.026 37.87C131.572 37.78 132.196 37.726 132.898 37.708V37.168C132.898 36.55 132.766 36.094 132.502 35.8C132.238 35.5 131.857 35.35 131.359 35.35C130.999 35.35 130.699 35.392 130.459 35.476C130.225 35.56 130.018 35.656 129.838 35.764C129.658 35.866 129.493 35.959 129.343 36.043C129.199 36.127 129.037 36.169 128.857 36.169C128.701 36.169 128.569 36.13 128.461 36.052C128.353 35.968 128.266 35.872 128.2 35.764L127.804 35.053ZM139.465 33.766V43H137.233V33.766H139.465ZM139.771 31.075C139.771 31.267 139.732 31.447 139.654 31.615C139.576 31.783 139.471 31.93 139.339 32.056C139.213 32.182 139.063 32.284 138.889 32.362C138.715 32.434 138.529 32.47 138.331 32.47C138.139 32.47 137.956 32.434 137.782 32.362C137.614 32.284 137.467 32.182 137.341 32.056C137.215 31.93 137.113 31.783 137.035 31.615C136.963 31.447 136.927 31.267 136.927 31.075C136.927 30.877 136.963 30.691 137.035 30.517C137.113 30.343 137.215 30.193 137.341 30.067C137.467 29.941 137.614 29.842 137.782 29.77C137.956 29.692 138.139 29.653 138.331 29.653C138.529 29.653 138.715 29.692 138.889 29.77C139.063 29.842 139.213 29.941 139.339 30.067C139.471 30.193 139.576 30.343 139.654 30.517C139.732 30.691 139.771 30.877 139.771 31.075ZM143.954 40.606C144.206 40.912 144.479 41.128 144.773 41.254C145.073 41.38 145.388 41.443 145.718 41.443C146.06 41.443 146.366 41.383 146.636 41.263C146.912 41.137 147.146 40.945 147.338 40.687C147.53 40.423 147.677 40.09 147.779 39.688C147.881 39.28 147.932 38.794 147.932 38.23C147.932 37.216 147.764 36.484 147.428 36.034C147.092 35.578 146.609 35.35 145.979 35.35C145.553 35.35 145.181 35.449 144.863 35.647C144.545 35.839 144.242 36.112 143.954 36.466V40.606ZM143.954 34.9C144.326 34.51 144.737 34.201 145.187 33.973C145.643 33.739 146.162 33.622 146.744 33.622C147.278 33.622 147.758 33.727 148.184 33.937C148.616 34.147 148.982 34.45 149.282 34.846C149.588 35.236 149.822 35.71 149.984 36.268C150.146 36.826 150.227 37.453 150.227 38.149C150.227 38.899 150.134 39.58 149.948 40.192C149.762 40.804 149.495 41.329 149.147 41.767C148.805 42.199 148.391 42.535 147.905 42.775C147.419 43.015 146.879 43.135 146.285 43.135C145.997 43.135 145.736 43.105 145.502 43.045C145.268 42.991 145.052 42.913 144.854 42.811C144.656 42.709 144.473 42.586 144.305 42.442C144.143 42.292 143.987 42.127 143.837 41.947L143.738 42.568C143.702 42.724 143.639 42.835 143.549 42.901C143.465 42.967 143.348 43 143.198 43H141.731V29.626H143.954V34.9ZM154.248 33.766V43H152.016V33.766H154.248ZM154.554 31.075C154.554 31.267 154.515 31.447 154.437 31.615C154.359 31.783 154.254 31.93 154.122 32.056C153.996 32.182 153.846 32.284 153.672 32.362C153.498 32.434 153.312 32.47 153.114 32.47C152.922 32.47 152.739 32.434 152.565 32.362C152.397 32.284 152.25 32.182 152.124 32.056C151.998 31.93 151.896 31.783 151.818 31.615C151.746 31.447 151.71 31.267 151.71 31.075C151.71 30.877 151.746 30.691 151.818 30.517C151.896 30.343 151.998 30.193 152.124 30.067C152.25 29.941 152.397 29.842 152.565 29.77C152.739 29.692 152.922 29.653 153.114 29.653C153.312 29.653 153.498 29.692 153.672 29.77C153.846 29.842 153.996 29.941 154.122 30.067C154.254 30.193 154.359 30.343 154.437 30.517C154.515 30.691 154.554 30.877 154.554 31.075ZM158.764 29.626V43H156.541V29.626H158.764ZM163.283 33.766V43H161.051V33.766H163.283ZM163.589 31.075C163.589 31.267 163.55 31.447 163.472 31.615C163.394 31.783 163.289 31.93 163.157 32.056C163.031 32.182 162.881 32.284 162.707 32.362C162.533 32.434 162.347 32.47 162.149 32.47C161.957 32.47 161.774 32.434 161.6 32.362C161.432 32.284 161.285 32.182 161.159 32.056C161.033 31.93 160.931 31.783 160.853 31.615C160.781 31.447 160.745 31.267 160.745 31.075C160.745 30.877 160.781 30.691 160.853 30.517C160.931 30.343 161.033 30.193 161.159 30.067C161.285 29.941 161.432 29.842 161.6 29.77C161.774 29.692 161.957 29.653 162.149 29.653C162.347 29.653 162.533 29.692 162.707 29.77C162.881 29.842 163.031 29.941 163.157 30.067C163.289 30.193 163.394 30.343 163.472 30.517C163.55 30.691 163.589 30.877 163.589 31.075ZM168.627 43.144C167.823 43.144 167.205 42.919 166.773 42.469C166.347 42.013 166.134 41.386 166.134 40.588V35.431H165.189C165.069 35.431 164.967 35.392 164.883 35.314C164.799 35.236 164.757 35.119 164.757 34.963V34.081L166.242 33.838L166.71 31.318C166.74 31.198 166.797 31.105 166.881 31.039C166.965 30.973 167.073 30.94 167.205 30.94H168.357V33.847H170.823V35.431H168.357V40.435C168.357 40.723 168.426 40.948 168.564 41.11C168.708 41.272 168.903 41.353 169.149 41.353C169.287 41.353 169.401 41.338 169.491 41.308C169.587 41.272 169.668 41.236 169.734 41.2C169.806 41.164 169.869 41.131 169.923 41.101C169.977 41.065 170.031 41.047 170.085 41.047C170.151 41.047 170.205 41.065 170.247 41.101C170.289 41.131 170.334 41.179 170.382 41.245L171.048 42.325C170.724 42.595 170.352 42.799 169.932 42.937C169.512 43.075 169.077 43.144 168.627 43.144ZM180.634 33.766L175.603 45.538C175.537 45.694 175.45 45.811 175.342 45.889C175.24 45.973 175.081 46.015 174.865 46.015H173.209L174.937 42.307L171.202 33.766H173.155C173.329 33.766 173.464 33.808 173.56 33.892C173.662 33.976 173.737 34.072 173.785 34.18L175.747 38.968C175.813 39.13 175.867 39.292 175.909 39.454C175.957 39.616 176.002 39.781 176.044 39.949C176.098 39.781 176.152 39.616 176.206 39.454C176.26 39.286 176.32 39.121 176.386 38.959L178.24 34.18C178.288 34.06 178.366 33.961 178.474 33.883C178.588 33.805 178.714 33.766 178.852 33.766H180.634Z" fill="white"/>
<path d="M223.533 35.9934C223.533 36.2867 223.427 36.5534 223.213 36.7667L216.28 43.4334C215.853 43.8334 215.187 43.8334 214.76 43.4067C214.36 42.98 214.36 42.3133 214.787 41.8867L220.92 35.9934L214.787 30.1C214.36 29.7 214.36 29.0067 214.76 28.58C215.16 28.1533 215.853 28.1534 216.28 28.5534L223.213 35.22C223.427 35.4333 223.533 35.7 223.533 35.9934Z" fill="white"/>
</svg>
