<svg width="91" height="75" viewBox="0 0 91 75" fill="none" xmlns="http://www.w3.org/2000/svg">
<path d="M2.368 30.944C3.41333 30.9013 4.13867 30.5813 4.544 29.984C4.94933 29.3867 5.152 28.4907 5.152 27.296L5.12 12.192H5.056L1.216 14.656L0.576 13.728L6.816 9.088H7.904L7.936 28.512C7.936 29.5787 7.904 30.3147 7.84 30.72L10.528 30.592V32H2.368V30.944ZM21.6083 32.512C18.6429 32.512 16.5416 31.3813 15.3043 29.12C14.0669 26.8587 13.4483 24.1173 13.4483 20.896C13.4483 18.9547 13.7363 17.088 14.3123 15.296C14.9096 13.4827 15.8269 12 17.0643 10.848C18.3016 9.67467 19.8589 9.088 21.7363 9.088C23.6776 9.088 25.2456 9.664 26.4403 10.816C27.6349 11.9467 28.4883 13.3867 29.0003 15.136C29.5123 16.8853 29.7683 18.752 29.7683 20.736C29.7683 22.656 29.4803 24.512 28.9043 26.304C28.3496 28.096 27.4536 29.5787 26.2163 30.752C25.0003 31.9253 23.4643 32.512 21.6083 32.512ZM21.8003 31.264C23.4643 31.264 24.6589 30.3147 25.3843 28.416C26.1096 26.496 26.4723 24.16 26.4723 21.408C26.4723 18.336 26.0989 15.7227 25.3523 13.568C24.6269 11.392 23.4003 10.304 21.6723 10.304C19.9656 10.304 18.7176 11.2747 17.9283 13.216C17.1389 15.1573 16.7443 17.4933 16.7443 20.224C16.7443 23.0827 17.1176 25.6427 17.8643 27.904C18.6323 30.144 19.9443 31.264 21.8003 31.264ZM41.4833 32.512C38.5179 32.512 36.4166 31.3813 35.1793 29.12C33.9419 26.8587 33.3233 24.1173 33.3233 20.896C33.3233 18.9547 33.6113 17.088 34.1873 15.296C34.7846 13.4827 35.7019 12 36.9393 10.848C38.1766 9.67467 39.7339 9.088 41.6113 9.088C43.5526 9.088 45.1206 9.664 46.3153 10.816C47.5099 11.9467 48.3633 13.3867 48.8753 15.136C49.3873 16.8853 49.6433 18.752 49.6433 20.736C49.6433 22.656 49.3553 24.512 48.7793 26.304C48.2246 28.096 47.3286 29.5787 46.0913 30.752C44.8753 31.9253 43.3393 32.512 41.4833 32.512ZM41.6753 31.264C43.3393 31.264 44.5339 30.3147 45.2593 28.416C45.9846 26.496 46.3473 24.16 46.3473 21.408C46.3473 18.336 45.9739 15.7227 45.2273 13.568C44.5019 11.392 43.2753 10.304 41.5473 10.304C39.8406 10.304 38.5926 11.2747 37.8033 13.216C37.0139 15.1573 36.6193 17.4933 36.6193 20.224C36.6193 23.0827 36.9926 25.6427 37.7393 27.904C38.5073 30.144 39.8193 31.264 41.6753 31.264ZM58.6063 22.784L52.5263 22.816V20.896L58.6063 20.928V14.624H60.6863V20.928L66.7663 20.96V22.752L60.6863 22.784V29.376H58.6063V22.784Z" fill="#10375C"/>
<path d="M8.536 66.736L8.528 68H1.464V56.536H8.528V57.8H3.016V61.608H7.48V62.824H3.016V66.736H8.536ZM16.9314 59.896L13.6274 68H12.3474L9.04338 59.896H10.2034C10.3207 59.896 10.4167 59.9253 10.4914 59.984C10.566 60.0427 10.6167 60.112 10.6434 60.192L12.6994 65.408C12.7634 65.6053 12.8194 65.7973 12.8674 65.984C12.9154 66.1707 12.9607 66.3573 13.0034 66.544C13.046 66.3573 13.0914 66.1707 13.1394 65.984C13.1874 65.7973 13.246 65.6053 13.3154 65.408L15.3954 60.192C15.4274 60.1067 15.4807 60.0373 15.5554 59.984C15.63 59.9253 15.718 59.896 15.8194 59.896H16.9314ZM23.4426 63.064C23.4426 62.7333 23.3946 62.432 23.2986 62.16C23.208 61.8827 23.072 61.6453 22.8906 61.448C22.7146 61.2453 22.4986 61.0907 22.2426 60.984C21.9866 60.872 21.696 60.816 21.3706 60.816C20.688 60.816 20.1466 61.016 19.7466 61.416C19.352 61.8107 19.1066 62.36 19.0106 63.064H23.4426ZM24.5946 66.864C24.4186 67.0773 24.208 67.264 23.9626 67.424C23.7173 67.5787 23.4533 67.7067 23.1706 67.808C22.8933 67.9093 22.6053 67.984 22.3066 68.032C22.008 68.0853 21.712 68.112 21.4186 68.112C20.8586 68.112 20.3413 68.0187 19.8666 67.832C19.3973 67.64 18.9893 67.3627 18.6426 67C18.3013 66.632 18.0346 66.1787 17.8426 65.64C17.6506 65.1013 17.5546 64.4827 17.5546 63.784C17.5546 63.2187 17.64 62.6907 17.8106 62.2C17.9866 61.7093 18.2373 61.2853 18.5626 60.928C18.888 60.5653 19.2853 60.2827 19.7546 60.08C20.224 59.872 20.752 59.768 21.3386 59.768C21.824 59.768 22.272 59.8507 22.6826 60.016C23.0986 60.176 23.456 60.4107 23.7546 60.72C24.0586 61.024 24.296 61.4027 24.4666 61.856C24.6373 62.304 24.7226 62.816 24.7226 63.392C24.7226 63.616 24.6986 63.7653 24.6506 63.84C24.6026 63.9147 24.512 63.952 24.3786 63.952H18.9626C18.9786 64.464 19.048 64.9093 19.1706 65.288C19.2986 65.6667 19.4746 65.984 19.6986 66.24C19.9226 66.4907 20.1893 66.68 20.4986 66.808C20.808 66.9307 21.1546 66.992 21.5386 66.992C21.896 66.992 22.2026 66.952 22.4586 66.872C22.72 66.7867 22.944 66.696 23.1306 66.6C23.3173 66.504 23.472 66.416 23.5946 66.336C23.7226 66.2507 23.832 66.208 23.9226 66.208C24.04 66.208 24.1306 66.2533 24.1946 66.344L24.5946 66.864ZM27.8158 61.072C27.9918 60.8747 28.1784 60.696 28.3758 60.536C28.5731 60.376 28.7811 60.24 28.9998 60.128C29.2238 60.0107 29.4584 59.9227 29.7038 59.864C29.9544 59.8 30.2238 59.768 30.5118 59.768C30.9544 59.768 31.3438 59.8427 31.6798 59.992C32.0211 60.136 32.3038 60.344 32.5278 60.616C32.7571 60.8827 32.9304 61.2053 33.0478 61.584C33.1651 61.9627 33.2238 62.3813 33.2238 62.84V68H31.7918V62.84C31.7918 62.2267 31.6504 61.752 31.3678 61.416C31.0904 61.0747 30.6664 60.904 30.0958 60.904C29.6744 60.904 29.2798 61.0053 28.9118 61.208C28.5491 61.4107 28.2131 61.6853 27.9038 62.032V68H26.4718V59.896H27.3278C27.5304 59.896 27.6558 59.9947 27.7038 60.192L27.8158 61.072ZM37.7723 68.128C37.1323 68.128 36.6389 67.9493 36.2923 67.592C35.9509 67.2347 35.7803 66.72 35.7803 66.048V61.088H34.8043C34.7189 61.088 34.6469 61.064 34.5883 61.016C34.5296 60.9627 34.5003 60.8827 34.5003 60.776V60.208L35.8283 60.04L36.1562 57.536C36.1723 57.456 36.2069 57.392 36.2603 57.344C36.3189 57.2907 36.3936 57.264 36.4843 57.264H37.2043V60.056H39.5483V61.088H37.2043V65.952C37.2043 66.2933 37.2869 66.5467 37.4523 66.712C37.6176 66.8773 37.8309 66.96 38.0923 66.96C38.2416 66.96 38.3696 66.9413 38.4763 66.904C38.5883 66.8613 38.6843 66.816 38.7643 66.768C38.8443 66.72 38.9109 66.6773 38.9643 66.64C39.0229 66.5973 39.0736 66.576 39.1163 66.576C39.1909 66.576 39.2576 66.6213 39.3163 66.712L39.7323 67.392C39.4869 67.6213 39.1909 67.8027 38.8443 67.936C38.4976 68.064 38.1403 68.128 37.7723 68.128ZM49.8324 61.232C49.7684 61.3493 49.6697 61.408 49.5364 61.408C49.4564 61.408 49.3657 61.3787 49.2644 61.32C49.163 61.2613 49.0377 61.1973 48.8884 61.128C48.7444 61.0533 48.571 60.9867 48.3684 60.928C48.1657 60.864 47.9257 60.832 47.6484 60.832C47.4084 60.832 47.1924 60.864 47.0004 60.928C46.8084 60.9867 46.643 61.0693 46.5044 61.176C46.371 61.2827 46.267 61.408 46.1924 61.552C46.123 61.6907 46.0884 61.8427 46.0884 62.008C46.0884 62.216 46.147 62.3893 46.2644 62.528C46.387 62.6667 46.547 62.7867 46.7444 62.888C46.9417 62.9893 47.1657 63.08 47.4164 63.16C47.667 63.2347 47.923 63.3173 48.1844 63.408C48.451 63.4933 48.7097 63.5893 48.9604 63.696C49.211 63.8027 49.435 63.936 49.6324 64.096C49.8297 64.256 49.987 64.4533 50.1044 64.688C50.227 64.9173 50.2884 65.1947 50.2884 65.52C50.2884 65.8933 50.2217 66.24 50.0884 66.56C49.955 66.8747 49.7577 67.1493 49.4964 67.384C49.235 67.6133 48.915 67.7947 48.5364 67.928C48.1577 68.0613 47.7204 68.128 47.2244 68.128C46.659 68.128 46.147 68.0373 45.6884 67.856C45.2297 67.6693 44.8404 67.432 44.5204 67.144L44.8564 66.6C44.899 66.5307 44.9497 66.4773 45.0084 66.44C45.067 66.4027 45.1417 66.384 45.2324 66.384C45.3284 66.384 45.4297 66.4213 45.5364 66.496C45.643 66.5707 45.771 66.6533 45.9204 66.744C46.075 66.8347 46.2617 66.9173 46.4804 66.992C46.699 67.0667 46.971 67.104 47.2964 67.104C47.5737 67.104 47.8164 67.0693 48.0244 67C48.2324 66.9253 48.4057 66.8267 48.5444 66.704C48.683 66.5813 48.7844 66.44 48.8484 66.28C48.9177 66.12 48.9524 65.9493 48.9524 65.768C48.9524 65.544 48.891 65.36 48.7684 65.216C48.651 65.0667 48.4937 64.9413 48.2964 64.84C48.099 64.7333 47.8724 64.6427 47.6164 64.568C47.3657 64.488 47.107 64.4053 46.8404 64.32C46.579 64.2347 46.3204 64.1387 46.0644 64.032C45.8137 63.92 45.5897 63.7813 45.3924 63.616C45.195 63.4507 45.035 63.248 44.9124 63.008C44.795 62.7627 44.7364 62.4667 44.7364 62.12C44.7364 61.8107 44.8004 61.5147 44.9284 61.232C45.0564 60.944 45.243 60.6933 45.4884 60.48C45.7337 60.2613 46.035 60.088 46.3924 59.96C46.7497 59.832 47.1577 59.768 47.6164 59.768C48.1497 59.768 48.627 59.8533 49.0484 60.024C49.475 60.1893 49.843 60.4187 50.1524 60.712L49.8324 61.232ZM53.4663 66.048C53.7276 66.4 54.0129 66.648 54.3223 66.792C54.6316 66.936 54.9783 67.008 55.3623 67.008C56.1196 67.008 56.7009 66.7387 57.1063 66.2C57.5116 65.6613 57.7143 64.8933 57.7143 63.896C57.7143 63.368 57.6663 62.9147 57.5703 62.536C57.4796 62.1573 57.3463 61.848 57.1703 61.608C56.9943 61.3627 56.7783 61.184 56.5223 61.072C56.2663 60.96 55.9756 60.904 55.6503 60.904C55.1863 60.904 54.7783 61.0107 54.4263 61.224C54.0796 61.4373 53.7596 61.7387 53.4663 62.128V66.048ZM53.3943 61.152C53.7356 60.7307 54.1303 60.392 54.5783 60.136C55.0263 59.88 55.5383 59.752 56.1143 59.752C56.5836 59.752 57.0076 59.8427 57.3863 60.024C57.7649 60.2 58.0876 60.464 58.3543 60.816C58.6209 61.1627 58.8263 61.5947 58.9703 62.112C59.1143 62.6293 59.1863 63.224 59.1863 63.896C59.1863 64.4933 59.1063 65.0507 58.9462 65.568C58.7863 66.08 58.5543 66.5253 58.2503 66.904C57.9516 67.2773 57.5836 67.5733 57.1463 67.792C56.7143 68.0053 56.2263 68.112 55.6823 68.112C55.1863 68.112 54.7596 68.0293 54.4023 67.864C54.0503 67.6933 53.7383 67.4587 53.4663 67.16V70.744H52.0343V59.896H52.8903C53.0929 59.896 53.2183 59.9947 53.2663 60.192L53.3943 61.152ZM65.395 64.352C64.739 64.3733 64.179 64.4267 63.715 64.512C63.2563 64.592 62.8803 64.6987 62.587 64.832C62.299 64.9653 62.0883 65.1227 61.955 65.304C61.827 65.4853 61.763 65.688 61.763 65.912C61.763 66.1253 61.7977 66.3093 61.867 66.464C61.9363 66.6187 62.0297 66.7467 62.147 66.848C62.2697 66.944 62.411 67.016 62.571 67.064C62.7363 67.1067 62.9123 67.128 63.099 67.128C63.3497 67.128 63.579 67.104 63.787 67.056C63.995 67.0027 64.1897 66.928 64.371 66.832C64.5577 66.736 64.7337 66.6213 64.899 66.488C65.0697 66.3547 65.235 66.2027 65.395 66.032V64.352ZM60.795 61.04C61.243 60.608 61.7257 60.2853 62.243 60.072C62.7603 59.8587 63.3337 59.752 63.963 59.752C64.4163 59.752 64.819 59.8267 65.171 59.976C65.523 60.1253 65.819 60.3333 66.059 60.6C66.299 60.8667 66.4803 61.1893 66.603 61.568C66.7257 61.9467 66.787 62.3627 66.787 62.816V68H66.155C66.0163 68 65.9097 67.9787 65.835 67.936C65.7603 67.888 65.7017 67.7973 65.659 67.664L65.499 66.896C65.2857 67.0933 65.0777 67.2693 64.875 67.424C64.6723 67.5733 64.459 67.7013 64.235 67.808C64.011 67.9093 63.771 67.9867 63.515 68.04C63.2643 68.0987 62.9843 68.128 62.675 68.128C62.3603 68.128 62.0643 68.0853 61.787 68C61.5097 67.9093 61.267 67.776 61.059 67.6C60.8563 67.424 60.6937 67.2027 60.571 66.936C60.4537 66.664 60.395 66.344 60.395 65.976C60.395 65.656 60.483 65.3493 60.659 65.056C60.835 64.7573 61.1203 64.4933 61.515 64.264C61.9097 64.0347 62.4243 63.848 63.059 63.704C63.6937 63.5547 64.4723 63.4693 65.395 63.448V62.816C65.395 62.1867 65.259 61.712 64.987 61.392C64.715 61.0667 64.3177 60.904 63.795 60.904C63.443 60.904 63.147 60.9493 62.907 61.04C62.6723 61.1253 62.467 61.224 62.291 61.336C62.1203 61.4427 61.971 61.5413 61.843 61.632C61.7203 61.7173 61.5977 61.76 61.475 61.76C61.379 61.76 61.2963 61.736 61.227 61.688C61.1577 61.6347 61.099 61.5707 61.051 61.496L60.795 61.04ZM74.5961 61.336C74.5535 61.3947 74.5108 61.44 74.4681 61.472C74.4255 61.504 74.3668 61.52 74.2921 61.52C74.2121 61.52 74.1241 61.488 74.0281 61.424C73.9321 61.3547 73.8121 61.28 73.6681 61.2C73.5295 61.12 73.3561 61.048 73.1481 60.984C72.9455 60.9147 72.6948 60.88 72.3961 60.88C71.9961 60.88 71.6441 60.952 71.3401 61.096C71.0361 61.2347 70.7801 61.4373 70.5721 61.704C70.3695 61.9707 70.2148 62.2933 70.1081 62.672C70.0068 63.0507 69.9561 63.4747 69.9561 63.944C69.9561 64.4347 70.0121 64.872 70.1241 65.256C70.2361 65.6347 70.3935 65.9547 70.5961 66.216C70.8041 66.472 71.0521 66.6693 71.3401 66.808C71.6335 66.9413 71.9615 67.008 72.3241 67.008C72.6708 67.008 72.9561 66.968 73.1801 66.888C73.4041 66.8027 73.5881 66.7093 73.7321 66.608C73.8815 66.5067 74.0041 66.416 74.1001 66.336C74.2015 66.2507 74.3001 66.208 74.3961 66.208C74.5135 66.208 74.6041 66.2533 74.6681 66.344L75.0681 66.864C74.8921 67.0827 74.6921 67.2693 74.4681 67.424C74.2441 67.5787 74.0015 67.7093 73.7401 67.816C73.4841 67.9173 73.2148 67.992 72.9321 68.04C72.6495 68.088 72.3615 68.112 72.0681 68.112C71.5615 68.112 71.0895 68.0187 70.6521 67.832C70.2201 67.6453 69.8441 67.376 69.5241 67.024C69.2041 66.6667 68.9535 66.2293 68.7721 65.712C68.5908 65.1947 68.5001 64.6053 68.5001 63.944C68.5001 63.3413 68.5828 62.784 68.7481 62.272C68.9188 61.76 69.1641 61.32 69.4841 60.952C69.8095 60.5787 70.2068 60.288 70.6761 60.08C71.1508 59.872 71.6948 59.768 72.3081 59.768C72.8788 59.768 73.3801 59.8613 73.8121 60.048C74.2495 60.2293 74.6361 60.488 74.9721 60.824L74.5961 61.336ZM81.8801 63.064C81.8801 62.7333 81.8321 62.432 81.7361 62.16C81.6455 61.8827 81.5095 61.6453 81.3281 61.448C81.1521 61.2453 80.9361 61.0907 80.6801 60.984C80.4241 60.872 80.1335 60.816 79.8081 60.816C79.1255 60.816 78.5841 61.016 78.1841 61.416C77.7895 61.8107 77.5441 62.36 77.4481 63.064H81.8801ZM83.0321 66.864C82.8561 67.0773 82.6455 67.264 82.4001 67.424C82.1548 67.5787 81.8908 67.7067 81.6081 67.808C81.3308 67.9093 81.0428 67.984 80.7441 68.032C80.4455 68.0853 80.1495 68.112 79.8561 68.112C79.2961 68.112 78.7788 68.0187 78.3041 67.832C77.8348 67.64 77.4268 67.3627 77.0801 67C76.7388 66.632 76.4721 66.1787 76.2801 65.64C76.0881 65.1013 75.9921 64.4827 75.9921 63.784C75.9921 63.2187 76.0775 62.6907 76.2481 62.2C76.4241 61.7093 76.6748 61.2853 77.0001 60.928C77.3255 60.5653 77.7228 60.2827 78.1921 60.08C78.6615 59.872 79.1895 59.768 79.7761 59.768C80.2615 59.768 80.7095 59.8507 81.1201 60.016C81.5361 60.176 81.8935 60.4107 82.1921 60.72C82.4961 61.024 82.7335 61.4027 82.9041 61.856C83.0748 62.304 83.1601 62.816 83.1601 63.392C83.1601 63.616 83.1361 63.7653 83.0881 63.84C83.0401 63.9147 82.9495 63.952 82.8161 63.952H77.4001C77.4161 64.464 77.4855 64.9093 77.6081 65.288C77.7361 65.6667 77.9121 65.984 78.1361 66.24C78.3601 66.4907 78.6268 66.68 78.9361 66.808C79.2455 66.9307 79.5921 66.992 79.9761 66.992C80.3335 66.992 80.6401 66.952 80.8961 66.872C81.1575 66.7867 81.3815 66.696 81.5681 66.6C81.7548 66.504 81.9095 66.416 82.0321 66.336C82.1601 66.2507 82.2695 66.208 82.3601 66.208C82.4775 66.208 82.5681 66.2533 82.6321 66.344L83.0321 66.864ZM89.6293 61.232C89.5653 61.3493 89.4666 61.408 89.3333 61.408C89.2533 61.408 89.1626 61.3787 89.0613 61.32C88.9599 61.2613 88.8346 61.1973 88.6853 61.128C88.5413 61.0533 88.3679 60.9867 88.1653 60.928C87.9626 60.864 87.7226 60.832 87.4453 60.832C87.2053 60.832 86.9893 60.864 86.7973 60.928C86.6053 60.9867 86.4399 61.0693 86.3013 61.176C86.1679 61.2827 86.0639 61.408 85.9893 61.552C85.9199 61.6907 85.8853 61.8427 85.8853 62.008C85.8853 62.216 85.9439 62.3893 86.0613 62.528C86.1839 62.6667 86.3439 62.7867 86.5413 62.888C86.7386 62.9893 86.9626 63.08 87.2133 63.16C87.4639 63.2347 87.7199 63.3173 87.9813 63.408C88.2479 63.4933 88.5066 63.5893 88.7573 63.696C89.0079 63.8027 89.2319 63.936 89.4293 64.096C89.6266 64.256 89.7839 64.4533 89.9013 64.688C90.0239 64.9173 90.0853 65.1947 90.0853 65.52C90.0853 65.8933 90.0186 66.24 89.8853 66.56C89.7519 66.8747 89.5546 67.1493 89.2933 67.384C89.0319 67.6133 88.7119 67.7947 88.3333 67.928C87.9546 68.0613 87.5173 68.128 87.0213 68.128C86.4559 68.128 85.9439 68.0373 85.4853 67.856C85.0266 67.6693 84.6373 67.432 84.3173 67.144L84.6533 66.6C84.6959 66.5307 84.7466 66.4773 84.8053 66.44C84.8639 66.4027 84.9386 66.384 85.0293 66.384C85.1253 66.384 85.2266 66.4213 85.3333 66.496C85.4399 66.5707 85.5679 66.6533 85.7173 66.744C85.8719 66.8347 86.0586 66.9173 86.2773 66.992C86.4959 67.0667 86.7679 67.104 87.0933 67.104C87.3706 67.104 87.6133 67.0693 87.8212 67C88.0293 66.9253 88.2026 66.8267 88.3413 66.704C88.4799 66.5813 88.5813 66.44 88.6453 66.28C88.7146 66.12 88.7493 65.9493 88.7493 65.768C88.7493 65.544 88.6879 65.36 88.5653 65.216C88.4479 65.0667 88.2906 64.9413 88.0933 64.84C87.8959 64.7333 87.6693 64.6427 87.4133 64.568C87.1626 64.488 86.9039 64.4053 86.6373 64.32C86.3759 64.2347 86.1173 64.1387 85.8613 64.032C85.6106 63.92 85.3866 63.7813 85.1893 63.616C84.9919 63.4507 84.8319 63.248 84.7093 63.008C84.5919 62.7627 84.5333 62.4667 84.5333 62.12C84.5333 61.8107 84.5973 61.5147 84.7253 61.232C84.8533 60.944 85.0399 60.6933 85.2853 60.48C85.5306 60.2613 85.8319 60.088 86.1893 59.96C86.5466 59.832 86.9546 59.768 87.4133 59.768C87.9466 59.768 88.4239 59.8533 88.8453 60.024C89.2719 60.1893 89.6399 60.4187 89.9493 60.712L89.6293 61.232Z" fill="#9A9A9A"/>
</svg>
