<svg width="148" height="75" viewBox="0 0 148 75" fill="none" xmlns="http://www.w3.org/2000/svg">
<path d="M8.128 32.512C6.848 32.512 5.70667 32.288 4.704 31.84C3.72267 31.392 2.96533 30.8373 2.432 30.176C1.92 29.4933 1.664 28.8213 1.664 28.16C1.664 27.648 1.80267 27.232 2.08 26.912C2.35733 26.5707 2.74133 26.4 3.232 26.4C3.72267 26.4 4.07467 26.56 4.288 26.88C4.52267 27.1787 4.64 27.4987 4.64 27.84C4.64 28.2027 4.52267 28.6187 4.288 29.088C4.416 29.792 4.864 30.336 5.632 30.72C6.4 31.0827 7.21067 31.264 8.064 31.264C9.57867 31.264 10.72 30.7413 11.488 29.696C12.2773 28.6507 12.672 27.3707 12.672 25.856C12.672 21.6533 11.0187 19.552 7.712 19.552C7.11467 19.552 6.38933 19.6587 5.536 19.872C4.68267 20.0853 4 20.352 3.488 20.672L2.592 19.84L2.528 9.6H10.816C12.0107 9.6 12.8427 9.44 13.312 9.12C13.7813 8.8 14.016 8.26667 14.016 7.52H14.88L14.688 11.744L4 11.968V19.008C4.59733 18.752 5.30133 18.5387 6.112 18.368C6.944 18.1973 7.78667 18.112 8.64 18.112C10.304 18.112 11.68 18.4533 12.768 19.136C13.8773 19.8187 14.688 20.704 15.2 21.792C15.7333 22.88 16 24.0427 16 25.28C16 26.7947 15.6373 28.1067 14.912 29.216C14.208 30.304 13.2587 31.1253 12.064 31.68C10.8693 32.2347 9.55733 32.512 8.128 32.512ZM27.3583 32.512C24.3929 32.512 22.2916 31.3813 21.0543 29.12C19.8169 26.8587 19.1983 24.1173 19.1983 20.896C19.1983 18.9547 19.4863 17.088 20.0623 15.296C20.6596 13.4827 21.5769 12 22.8143 10.848C24.0516 9.67467 25.6089 9.088 27.4863 9.088C29.4276 9.088 30.9956 9.664 32.1903 10.816C33.3849 11.9467 34.2383 13.3867 34.7503 15.136C35.2623 16.8853 35.5183 18.752 35.5183 20.736C35.5183 22.656 35.2303 24.512 34.6543 26.304C34.0996 28.096 33.2036 29.5787 31.9663 30.752C30.7503 31.9253 29.2143 32.512 27.3583 32.512ZM27.5503 31.264C29.2143 31.264 30.4089 30.3147 31.1343 28.416C31.8596 26.496 32.2223 24.16 32.2223 21.408C32.2223 18.336 31.8489 15.7227 31.1023 13.568C30.3769 11.392 29.1503 10.304 27.4223 10.304C25.7156 10.304 24.4676 11.2747 23.6783 13.216C22.8889 15.1573 22.4943 17.4933 22.4943 20.224C22.4943 23.0827 22.8676 25.6427 23.6143 27.904C24.3823 30.144 25.6943 31.264 27.5503 31.264ZM47.2333 32.512C44.2679 32.512 42.1666 31.3813 40.9293 29.12C39.6919 26.8587 39.0733 24.1173 39.0733 20.896C39.0733 18.9547 39.3613 17.088 39.9373 15.296C40.5346 13.4827 41.4519 12 42.6893 10.848C43.9266 9.67467 45.4839 9.088 47.3613 9.088C49.3026 9.088 50.8706 9.664 52.0653 10.816C53.2599 11.9467 54.1133 13.3867 54.6253 15.136C55.1373 16.8853 55.3933 18.752 55.3933 20.736C55.3933 22.656 55.1053 24.512 54.5293 26.304C53.9746 28.096 53.0786 29.5787 51.8413 30.752C50.6253 31.9253 49.0893 32.512 47.2333 32.512ZM47.4253 31.264C49.0893 31.264 50.2839 30.3147 51.0093 28.416C51.7346 26.496 52.0973 24.16 52.0973 21.408C52.0973 18.336 51.7239 15.7227 50.9773 13.568C50.2519 11.392 49.0253 10.304 47.2973 10.304C45.5906 10.304 44.3426 11.2747 43.5533 13.216C42.7639 15.1573 42.3693 17.4933 42.3693 20.224C42.3693 23.0827 42.7426 25.6427 43.4893 27.904C44.2573 30.144 45.5693 31.264 47.4253 31.264ZM77.5945 28.32C75.9732 24.7147 74.7145 21.8773 73.8185 19.808C72.9225 17.7173 72.0478 15.52 71.1945 13.216L71.1625 14.624C70.9705 20.8747 70.8532 25.3333 70.8105 28C70.8105 28.32 70.7998 28.5547 70.7785 28.704C70.7785 29.4293 70.7465 30.1013 70.6825 30.72L73.0825 30.592V32H66.9705V30.944C67.8665 30.9227 68.4425 30.6773 68.6985 30.208C68.9758 29.7173 69.1358 28.9813 69.1785 28L69.8825 10.88L67.5785 10.976V9.6H72.4745L76.8265 19.648C78.4052 23.36 79.6212 26.176 80.4745 28.096H80.5385C80.7945 27.456 81.3385 26.08 82.1705 23.968C82.9812 21.92 83.9092 19.6693 84.9545 17.216C86.1705 14.3573 87.2158 11.8187 88.0905 9.6H92.8265V10.656C92.0585 10.6347 91.4932 10.848 91.1305 11.296C90.7678 11.7227 90.5865 12.4587 90.5865 13.504L90.6185 14.144L91.4505 28.704C91.4932 29.1947 91.5145 29.856 91.5145 30.688L93.8505 30.592V32H86.6825V30.944C87.5145 30.9227 88.0798 30.688 88.3785 30.24C88.6772 29.7707 88.8265 29.0453 88.8265 28.064C88.8265 27.6587 88.8158 27.3493 88.7945 27.136L87.9625 13.504C87.9198 13.6107 87.8558 13.7493 87.7705 13.92C87.7065 14.0907 87.6318 14.2933 87.5465 14.528L80.3465 32.32H79.3865L77.5945 28.32ZM103.898 32.512C103.044 32.512 102.202 32.3627 101.37 32.064C100.538 31.7653 99.8122 31.264 99.1935 30.56L98.4255 32H97.3055L97.3695 12C97.3695 11.1893 97.4015 10.496 97.4655 9.92L95.1935 10.048V8.704C96.4735 8.704 97.3802 8.62933 97.9135 8.48C98.4682 8.33067 98.8948 8.11733 99.1935 7.84H100.122V17.376C100.719 16.7787 101.423 16.32 102.234 16C103.066 15.6587 103.972 15.488 104.954 15.488C106.319 15.488 107.556 15.8187 108.666 16.48C109.775 17.1413 110.639 18.0907 111.258 19.328C111.898 20.5653 112.218 21.9947 112.218 23.616C112.218 25.3867 111.834 26.944 111.066 28.288C110.298 29.632 109.274 30.6773 107.994 31.424C106.714 32.1493 105.348 32.512 103.898 32.512ZM103.898 31.2C105.434 31.2 106.65 30.5813 107.546 29.344C108.463 28.0853 108.922 26.4427 108.922 24.416C108.922 22.176 108.506 20.3947 107.674 19.072C106.842 17.728 105.615 17.056 103.994 17.056C103.29 17.056 102.586 17.2267 101.882 17.568C101.199 17.888 100.612 18.3253 100.122 18.88V26.976C100.122 29.792 101.38 31.2 103.898 31.2ZM114.683 39.2C115.301 39.2 115.739 39.04 115.995 38.72C116.272 38.4213 116.432 38.0373 116.475 37.568C116.517 37.12 116.549 36.3627 116.571 35.296L116.635 19.84C116.635 18.944 116.677 18.2507 116.763 17.76L114.491 17.888V16.544C115.749 16.544 116.613 16.48 117.083 16.352C117.552 16.2027 117.936 15.9787 118.235 15.68H119.195C119.28 16.7253 119.323 17.3013 119.323 17.408C119.963 16.832 120.731 16.3733 121.627 16.032C122.523 15.6693 123.408 15.488 124.283 15.488C125.541 15.488 126.704 15.8187 127.771 16.48C128.837 17.12 129.691 18.048 130.331 19.264C130.992 20.4587 131.323 21.8453 131.323 23.424C131.323 25.1947 130.949 26.7733 130.203 28.16C129.456 29.5253 128.453 30.592 127.195 31.36C125.957 32.128 124.613 32.512 123.163 32.512C121.691 32.512 120.411 32.16 119.323 31.456V36.768C119.323 37.728 119.28 38.4533 119.195 38.944L121.211 38.848V40.16H114.683V39.2ZM123.099 31.232C124.101 31.232 124.965 30.9227 125.691 30.304C126.437 29.6853 127.013 28.8213 127.419 27.712C127.824 26.6027 128.027 25.344 128.027 23.936C128.027 22.016 127.611 20.3947 126.779 19.072C125.968 17.728 124.752 17.056 123.131 17.056C122.427 17.056 121.744 17.2267 121.083 17.568C120.421 17.9093 119.845 18.336 119.355 18.848C119.376 18.9973 119.387 19.648 119.387 20.8L119.355 29.984C120.443 30.816 121.691 31.232 123.099 31.232ZM140.624 32.512C139.622 32.512 138.704 32.3733 137.872 32.096C137.04 31.84 136.326 31.5093 135.728 31.104L135.856 32.224H134.512L134.32 26.72H135.312C135.355 27.5947 135.59 28.3733 136.016 29.056C136.464 29.7387 137.04 30.2827 137.744 30.688C138.47 31.072 139.238 31.264 140.048 31.264C140.966 31.264 141.776 31.0507 142.48 30.624C143.206 30.176 143.568 29.5467 143.568 28.736C143.568 28.1387 143.387 27.6373 143.024 27.232C142.683 26.8267 142.246 26.496 141.712 26.24C141.2 25.9627 140.475 25.6427 139.536 25.28C138.406 24.8533 137.499 24.4587 136.816 24.096C136.134 23.712 135.547 23.2 135.056 22.56C134.566 21.92 134.32 21.1093 134.32 20.128C134.32 19.424 134.491 18.72 134.832 18.016C135.174 17.312 135.75 16.7147 136.56 16.224C137.371 15.7333 138.448 15.488 139.792 15.488C140.454 15.488 141.126 15.5947 141.808 15.808C142.512 16.0213 143.163 16.3733 143.76 16.864L143.696 15.648H145.04V21.248H144.016C143.952 20.0107 143.568 18.944 142.864 18.048C142.182 17.1307 141.211 16.672 139.952 16.672C138.992 16.672 138.224 16.9173 137.648 17.408C137.094 17.8773 136.816 18.4427 136.816 19.104C136.816 19.7227 136.998 20.2453 137.36 20.672C137.744 21.0987 138.214 21.4613 138.768 21.76C139.323 22.0587 140.07 22.3893 141.008 22.752C142.118 23.2 143.014 23.616 143.696 24C144.379 24.384 144.955 24.896 145.424 25.536C145.915 26.1547 146.16 26.912 146.16 27.808C146.16 28.832 145.894 29.696 145.36 30.4C144.848 31.104 144.166 31.6373 143.312 32C142.48 32.3413 141.584 32.512 140.624 32.512Z" fill="#10375C"/>
<path d="M3.016 68H1.464V56.536H3.016V68ZM6.83138 61.072C7.00738 60.8747 7.19404 60.696 7.39138 60.536C7.58871 60.376 7.79671 60.24 8.01538 60.128C8.23938 60.0107 8.47404 59.9227 8.71938 59.864C8.97004 59.8 9.23938 59.768 9.52738 59.768C9.97004 59.768 10.3594 59.8427 10.6954 59.992C11.0367 60.136 11.3194 60.344 11.5434 60.616C11.7727 60.8827 11.946 61.2053 12.0634 61.584C12.1807 61.9627 12.2394 62.3813 12.2394 62.84V68H10.8074V62.84C10.8074 62.2267 10.666 61.752 10.3834 61.416C10.106 61.0747 9.68204 60.904 9.11138 60.904C8.69004 60.904 8.29538 61.0053 7.92738 61.208C7.56471 61.4107 7.22871 61.6853 6.91938 62.032V68H5.48738V59.896H6.34338C6.54604 59.896 6.67138 59.9947 6.71938 60.192L6.83138 61.072ZM16.7879 68.128C16.1479 68.128 15.6545 67.9493 15.3079 67.592C14.9665 67.2347 14.7959 66.72 14.7959 66.048V61.088H13.8199C13.7345 61.088 13.6625 61.064 13.6039 61.016C13.5452 60.9627 13.5159 60.8827 13.5159 60.776V60.208L14.8439 60.04L15.1719 57.536C15.1879 57.456 15.2225 57.392 15.2759 57.344C15.3345 57.2907 15.4092 57.264 15.4999 57.264H16.2199V60.056H18.5639V61.088H16.2199V65.952C16.2199 66.2933 16.3025 66.5467 16.4679 66.712C16.6332 66.8773 16.8465 66.96 17.1079 66.96C17.2572 66.96 17.3852 66.9413 17.4919 66.904C17.6039 66.8613 17.6999 66.816 17.7799 66.768C17.8599 66.72 17.9265 66.6773 17.9799 66.64C18.0385 66.5973 18.0892 66.576 18.1319 66.576C18.2065 66.576 18.2732 66.6213 18.3319 66.712L18.7479 67.392C18.5025 67.6213 18.2065 67.8027 17.8599 67.936C17.5132 68.064 17.1559 68.128 16.7879 68.128ZM25.4114 63.064C25.4114 62.7333 25.3634 62.432 25.2674 62.16C25.1767 61.8827 25.0407 61.6453 24.8594 61.448C24.6834 61.2453 24.4674 61.0907 24.2114 60.984C23.9554 60.872 23.6647 60.816 23.3394 60.816C22.6567 60.816 22.1154 61.016 21.7154 61.416C21.3207 61.8107 21.0754 62.36 20.9794 63.064H25.4114ZM26.5634 66.864C26.3874 67.0773 26.1767 67.264 25.9314 67.424C25.686 67.5787 25.422 67.7067 25.1394 67.808C24.862 67.9093 24.574 67.984 24.2754 68.032C23.9767 68.0853 23.6807 68.112 23.3874 68.112C22.8274 68.112 22.31 68.0187 21.8354 67.832C21.366 67.64 20.958 67.3627 20.6114 67C20.27 66.632 20.0034 66.1787 19.8114 65.64C19.6194 65.1013 19.5234 64.4827 19.5234 63.784C19.5234 63.2187 19.6087 62.6907 19.7794 62.2C19.9554 61.7093 20.206 61.2853 20.5314 60.928C20.8567 60.5653 21.254 60.2827 21.7234 60.08C22.1927 59.872 22.7207 59.768 23.3074 59.768C23.7927 59.768 24.2407 59.8507 24.6514 60.016C25.0674 60.176 25.4247 60.4107 25.7234 60.72C26.0274 61.024 26.2647 61.4027 26.4354 61.856C26.606 62.304 26.6914 62.816 26.6914 63.392C26.6914 63.616 26.6674 63.7653 26.6194 63.84C26.5714 63.9147 26.4807 63.952 26.3474 63.952H20.9314C20.9474 64.464 21.0167 64.9093 21.1394 65.288C21.2674 65.6667 21.4434 65.984 21.6674 66.24C21.8914 66.4907 22.158 66.68 22.4674 66.808C22.7767 66.9307 23.1234 66.992 23.5074 66.992C23.8647 66.992 24.1714 66.952 24.4274 66.872C24.6887 66.7867 24.9127 66.696 25.0994 66.6C25.286 66.504 25.4407 66.416 25.5634 66.336C25.6914 66.2507 25.8007 66.208 25.8914 66.208C26.0087 66.208 26.0994 66.2533 26.1634 66.344L26.5634 66.864ZM29.7925 61.52C30.0485 60.9653 30.3632 60.5333 30.7365 60.224C31.1098 59.9093 31.5658 59.752 32.1045 59.752C32.2752 59.752 32.4378 59.7707 32.5925 59.808C32.7525 59.8453 32.8938 59.904 33.0165 59.984L32.9125 61.048C32.8805 61.1813 32.8005 61.248 32.6725 61.248C32.5978 61.248 32.4885 61.232 32.3445 61.2C32.2005 61.168 32.0378 61.152 31.8565 61.152C31.6005 61.152 31.3712 61.1893 31.1685 61.264C30.9712 61.3387 30.7925 61.4507 30.6325 61.6C30.4778 61.744 30.3365 61.9253 30.2085 62.144C30.0858 62.3573 29.9738 62.6027 29.8725 62.88V68H28.4405V59.896H29.2565C29.4112 59.896 29.5178 59.9253 29.5765 59.984C29.6352 60.0427 29.6752 60.144 29.6965 60.288L29.7925 61.52ZM35.6126 61.072C35.7886 60.8747 35.9753 60.696 36.1726 60.536C36.37 60.376 36.578 60.24 36.7966 60.128C37.0206 60.0107 37.2553 59.9227 37.5006 59.864C37.7513 59.8 38.0206 59.768 38.3086 59.768C38.7513 59.768 39.1406 59.8427 39.4766 59.992C39.818 60.136 40.1006 60.344 40.3246 60.616C40.554 60.8827 40.7273 61.2053 40.8446 61.584C40.962 61.9627 41.0206 62.3813 41.0206 62.84V68H39.5886V62.84C39.5886 62.2267 39.4473 61.752 39.1646 61.416C38.8873 61.0747 38.4633 60.904 37.8926 60.904C37.4713 60.904 37.0766 61.0053 36.7086 61.208C36.346 61.4107 36.01 61.6853 35.7006 62.032V68H34.2686V59.896H35.1246C35.3273 59.896 35.4526 59.9947 35.5006 60.192L35.6126 61.072ZM48.6145 63.064C48.6145 62.7333 48.5665 62.432 48.4705 62.16C48.3798 61.8827 48.2438 61.6453 48.0625 61.448C47.8865 61.2453 47.6705 61.0907 47.4145 60.984C47.1585 60.872 46.8678 60.816 46.5425 60.816C45.8598 60.816 45.3185 61.016 44.9185 61.416C44.5238 61.8107 44.2785 62.36 44.1825 63.064H48.6145ZM49.7665 66.864C49.5905 67.0773 49.3798 67.264 49.1345 67.424C48.8892 67.5787 48.6252 67.7067 48.3425 67.808C48.0652 67.9093 47.7772 67.984 47.4785 68.032C47.1798 68.0853 46.8838 68.112 46.5905 68.112C46.0305 68.112 45.5132 68.0187 45.0385 67.832C44.5692 67.64 44.1612 67.3627 43.8145 67C43.4732 66.632 43.2065 66.1787 43.0145 65.64C42.8225 65.1013 42.7265 64.4827 42.7265 63.784C42.7265 63.2187 42.8118 62.6907 42.9825 62.2C43.1585 61.7093 43.4092 61.2853 43.7345 60.928C44.0598 60.5653 44.4572 60.2827 44.9265 60.08C45.3958 59.872 45.9238 59.768 46.5105 59.768C46.9958 59.768 47.4438 59.8507 47.8545 60.016C48.2705 60.176 48.6278 60.4107 48.9265 60.72C49.2305 61.024 49.4678 61.4027 49.6385 61.856C49.8092 62.304 49.8945 62.816 49.8945 63.392C49.8945 63.616 49.8705 63.7653 49.8225 63.84C49.7745 63.9147 49.6838 63.952 49.5505 63.952H44.1345C44.1505 64.464 44.2198 64.9093 44.3425 65.288C44.4705 65.6667 44.6465 65.984 44.8705 66.24C45.0945 66.4907 45.3612 66.68 45.6705 66.808C45.9798 66.9307 46.3265 66.992 46.7105 66.992C47.0678 66.992 47.3745 66.952 47.6305 66.872C47.8918 66.7867 48.1158 66.696 48.3025 66.6C48.4892 66.504 48.6438 66.416 48.7665 66.336C48.8945 66.2507 49.0038 66.208 49.0945 66.208C49.2118 66.208 49.3025 66.2533 49.3665 66.344L49.7665 66.864ZM54.0691 68.128C53.4291 68.128 52.9358 67.9493 52.5891 67.592C52.2478 67.2347 52.0771 66.72 52.0771 66.048V61.088H51.1011C51.0158 61.088 50.9438 61.064 50.8851 61.016C50.8265 60.9627 50.7971 60.8827 50.7971 60.776V60.208L52.1251 60.04L52.4531 57.536C52.4691 57.456 52.5038 57.392 52.5571 57.344C52.6158 57.2907 52.6905 57.264 52.7811 57.264H53.5011V60.056H55.8451V61.088H53.5011V65.952C53.5011 66.2933 53.5838 66.5467 53.7491 66.712C53.9145 66.8773 54.1278 66.96 54.3891 66.96C54.5385 66.96 54.6665 66.9413 54.7731 66.904C54.8851 66.8613 54.9811 66.816 55.0611 66.768C55.1411 66.72 55.2078 66.6773 55.2611 66.64C55.3198 66.5973 55.3705 66.576 55.4131 66.576C55.4878 66.576 55.5545 66.6213 55.6131 66.712L56.0291 67.392C55.7838 67.6213 55.4878 67.8027 55.1411 67.936C54.7945 68.064 54.4371 68.128 54.0691 68.128ZM66.1293 61.232C66.0653 61.3493 65.9666 61.408 65.8333 61.408C65.7533 61.408 65.6626 61.3787 65.5613 61.32C65.4599 61.2613 65.3346 61.1973 65.1853 61.128C65.0413 61.0533 64.8679 60.9867 64.6653 60.928C64.4626 60.864 64.2226 60.832 63.9453 60.832C63.7053 60.832 63.4893 60.864 63.2973 60.928C63.1053 60.9867 62.9399 61.0693 62.8013 61.176C62.6679 61.2827 62.5639 61.408 62.4893 61.552C62.4199 61.6907 62.3853 61.8427 62.3853 62.008C62.3853 62.216 62.4439 62.3893 62.5613 62.528C62.6839 62.6667 62.8439 62.7867 63.0413 62.888C63.2386 62.9893 63.4626 63.08 63.7133 63.16C63.9639 63.2347 64.2199 63.3173 64.4813 63.408C64.7479 63.4933 65.0066 63.5893 65.2573 63.696C65.5079 63.8027 65.7319 63.936 65.9293 64.096C66.1266 64.256 66.2839 64.4533 66.4013 64.688C66.5239 64.9173 66.5853 65.1947 66.5853 65.52C66.5853 65.8933 66.5186 66.24 66.3853 66.56C66.2519 66.8747 66.0546 67.1493 65.7933 67.384C65.5319 67.6133 65.2119 67.7947 64.8333 67.928C64.4546 68.0613 64.0173 68.128 63.5213 68.128C62.9559 68.128 62.4439 68.0373 61.9853 67.856C61.5266 67.6693 61.1373 67.432 60.8173 67.144L61.1533 66.6C61.1959 66.5307 61.2466 66.4773 61.3053 66.44C61.3639 66.4027 61.4386 66.384 61.5293 66.384C61.6253 66.384 61.7266 66.4213 61.8333 66.496C61.9399 66.5707 62.0679 66.6533 62.2173 66.744C62.3719 66.8347 62.5586 66.9173 62.7773 66.992C62.9959 67.0667 63.2679 67.104 63.5933 67.104C63.8706 67.104 64.1133 67.0693 64.3212 67C64.5293 66.9253 64.7026 66.8267 64.8413 66.704C64.9799 66.5813 65.0813 66.44 65.1453 66.28C65.2146 66.12 65.2493 65.9493 65.2493 65.768C65.2493 65.544 65.1879 65.36 65.0653 65.216C64.9479 65.0667 64.7906 64.9413 64.5933 64.84C64.3959 64.7333 64.1693 64.6427 63.9133 64.568C63.6626 64.488 63.4039 64.4053 63.1373 64.32C62.8759 64.2347 62.6173 64.1387 62.3613 64.032C62.1106 63.92 61.8866 63.7813 61.6893 63.616C61.4919 63.4507 61.3319 63.248 61.2093 63.008C61.0919 62.7627 61.0333 62.4667 61.0333 62.12C61.0333 61.8107 61.0973 61.5147 61.2253 61.232C61.3533 60.944 61.5399 60.6933 61.7853 60.48C62.0306 60.2613 62.3319 60.088 62.6893 59.96C63.0466 59.832 63.4546 59.768 63.9133 59.768C64.4466 59.768 64.9239 59.8533 65.3453 60.024C65.7719 60.1893 66.1399 60.4187 66.4493 60.712L66.1293 61.232ZM69.7631 66.048C70.0245 66.4 70.3098 66.648 70.6191 66.792C70.9285 66.936 71.2751 67.008 71.6591 67.008C72.4165 67.008 72.9978 66.7387 73.4031 66.2C73.8085 65.6613 74.0111 64.8933 74.0111 63.896C74.0111 63.368 73.9631 62.9147 73.8671 62.536C73.7765 62.1573 73.6431 61.848 73.4671 61.608C73.2911 61.3627 73.0751 61.184 72.8191 61.072C72.5631 60.96 72.2725 60.904 71.9471 60.904C71.4831 60.904 71.0751 61.0107 70.7231 61.224C70.3765 61.4373 70.0565 61.7387 69.7631 62.128V66.048ZM69.6911 61.152C70.0325 60.7307 70.4271 60.392 70.8751 60.136C71.3231 59.88 71.8351 59.752 72.4111 59.752C72.8805 59.752 73.3045 59.8427 73.6831 60.024C74.0618 60.2 74.3845 60.464 74.6511 60.816C74.9178 61.1627 75.1231 61.5947 75.2671 62.112C75.4111 62.6293 75.4831 63.224 75.4831 63.896C75.4831 64.4933 75.4031 65.0507 75.2431 65.568C75.0831 66.08 74.8511 66.5253 74.5471 66.904C74.2485 67.2773 73.8805 67.5733 73.4431 67.792C73.0111 68.0053 72.5231 68.112 71.9791 68.112C71.4831 68.112 71.0565 68.0293 70.6991 67.864C70.3471 67.6933 70.0351 67.4587 69.7631 67.16V70.744H68.3311V59.896H69.1871C69.3898 59.896 69.5151 59.9947 69.5631 60.192L69.6911 61.152ZM82.7239 63.064C82.7239 62.7333 82.6759 62.432 82.5799 62.16C82.4892 61.8827 82.3532 61.6453 82.1719 61.448C81.9959 61.2453 81.7799 61.0907 81.5239 60.984C81.2679 60.872 80.9772 60.816 80.6519 60.816C79.9692 60.816 79.4279 61.016 79.0279 61.416C78.6332 61.8107 78.3879 62.36 78.2919 63.064H82.7239ZM83.8759 66.864C83.6999 67.0773 83.4892 67.264 83.2439 67.424C82.9985 67.5787 82.7345 67.7067 82.4519 67.808C82.1745 67.9093 81.8865 67.984 81.5879 68.032C81.2892 68.0853 80.9932 68.112 80.6999 68.112C80.1399 68.112 79.6225 68.0187 79.1479 67.832C78.6785 67.64 78.2705 67.3627 77.9239 67C77.5825 66.632 77.3159 66.1787 77.1239 65.64C76.9319 65.1013 76.8359 64.4827 76.8359 63.784C76.8359 63.2187 76.9212 62.6907 77.0919 62.2C77.2679 61.7093 77.5185 61.2853 77.8439 60.928C78.1692 60.5653 78.5665 60.2827 79.0359 60.08C79.5052 59.872 80.0332 59.768 80.6199 59.768C81.1052 59.768 81.5532 59.8507 81.9639 60.016C82.3799 60.176 82.7372 60.4107 83.0359 60.72C83.3399 61.024 83.5772 61.4027 83.7479 61.856C83.9185 62.304 84.0039 62.816 84.0039 63.392C84.0039 63.616 83.9799 63.7653 83.9319 63.84C83.8839 63.9147 83.7932 63.952 83.6599 63.952H78.2439C78.2599 64.464 78.3292 64.9093 78.4519 65.288C78.5799 65.6667 78.7559 65.984 78.9799 66.24C79.2039 66.4907 79.4705 66.68 79.7799 66.808C80.0892 66.9307 80.4359 66.992 80.8199 66.992C81.1772 66.992 81.4839 66.952 81.7399 66.872C82.0012 66.7867 82.2252 66.696 82.4119 66.6C82.5985 66.504 82.7532 66.416 82.8759 66.336C83.0039 66.2507 83.1132 66.208 83.2039 66.208C83.3212 66.208 83.4119 66.2533 83.4759 66.344L83.8759 66.864ZM91.177 63.064C91.177 62.7333 91.129 62.432 91.033 62.16C90.9423 61.8827 90.8063 61.6453 90.625 61.448C90.449 61.2453 90.233 61.0907 89.977 60.984C89.721 60.872 89.4303 60.816 89.105 60.816C88.4223 60.816 87.881 61.016 87.481 61.416C87.0863 61.8107 86.841 62.36 86.745 63.064H91.177ZM92.329 66.864C92.153 67.0773 91.9423 67.264 91.697 67.424C91.4517 67.5787 91.1877 67.7067 90.905 67.808C90.6277 67.9093 90.3397 67.984 90.041 68.032C89.7423 68.0853 89.4463 68.112 89.153 68.112C88.593 68.112 88.0757 68.0187 87.601 67.832C87.1317 67.64 86.7237 67.3627 86.377 67C86.0357 66.632 85.769 66.1787 85.577 65.64C85.385 65.1013 85.289 64.4827 85.289 63.784C85.289 63.2187 85.3743 62.6907 85.545 62.2C85.721 61.7093 85.9717 61.2853 86.297 60.928C86.6223 60.5653 87.0197 60.2827 87.489 60.08C87.9583 59.872 88.4863 59.768 89.073 59.768C89.5583 59.768 90.0063 59.8507 90.417 60.016C90.833 60.176 91.1903 60.4107 91.489 60.72C91.793 61.024 92.0303 61.4027 92.201 61.856C92.3717 62.304 92.457 62.816 92.457 63.392C92.457 63.616 92.433 63.7653 92.385 63.84C92.337 63.9147 92.2463 63.952 92.113 63.952H86.697C86.713 64.464 86.7823 64.9093 86.905 65.288C87.033 65.6667 87.209 65.984 87.433 66.24C87.657 66.4907 87.9237 66.68 88.233 66.808C88.5423 66.9307 88.889 66.992 89.273 66.992C89.6303 66.992 89.937 66.952 90.193 66.872C90.4543 66.7867 90.6783 66.696 90.865 66.6C91.0517 66.504 91.2063 66.416 91.329 66.336C91.457 66.2507 91.5663 66.208 91.657 66.208C91.7743 66.208 91.865 66.2533 91.929 66.344L92.329 66.864ZM99.4861 61.824C99.2195 61.4667 98.9315 61.2187 98.6221 61.08C98.3128 60.936 97.9661 60.864 97.5821 60.864C96.8301 60.864 96.2515 61.1333 95.8461 61.672C95.4408 62.2107 95.2381 62.9787 95.2381 63.976C95.2381 64.504 95.2835 64.9573 95.3741 65.336C95.4648 65.7093 95.5981 66.0187 95.7741 66.264C95.9501 66.504 96.1661 66.68 96.4221 66.792C96.6781 66.904 96.9688 66.96 97.2941 66.96C97.7635 66.96 98.1715 66.8533 98.5181 66.64C98.8701 66.4267 99.1928 66.1253 99.4861 65.736V61.824ZM100.91 56.216V68H100.062C99.8595 68 99.7315 67.9013 99.6781 67.704L99.5501 66.72C99.2035 67.136 98.8088 67.472 98.3661 67.728C97.9235 67.984 97.4115 68.112 96.8301 68.112C96.3661 68.112 95.9448 68.024 95.5661 67.848C95.1875 67.6667 94.8648 67.4027 94.5981 67.056C94.3315 66.7093 94.1261 66.2773 93.9821 65.76C93.8381 65.2427 93.7661 64.648 93.7661 63.976C93.7661 63.3787 93.8461 62.824 94.0061 62.312C94.1661 61.7947 94.3955 61.3467 94.6941 60.968C94.9928 60.5893 95.3581 60.2933 95.7901 60.08C96.2275 59.8613 96.7181 59.752 97.2621 59.752C97.7581 59.752 98.1821 59.8373 98.5341 60.008C98.8915 60.1733 99.2088 60.4053 99.4861 60.704V56.216H100.91Z" fill="#9A9A9A"/>
</svg>
