<svg width="138" height="75" viewBox="0 0 138 75" fill="none" xmlns="http://www.w3.org/2000/svg">
<path d="M1.472 32C1.472 30.784 1.68533 29.696 2.112 28.736C2.56 27.776 3.104 26.9333 3.744 26.208C4.384 25.4613 5.30133 24.5333 6.496 23.424C7.328 22.656 7.75467 22.2613 7.776 22.24C9.14133 20.9387 10.1333 19.7227 10.752 18.592C11.392 17.4613 11.712 16.3627 11.712 15.296C11.712 13.888 11.4027 12.7147 10.784 11.776C10.1867 10.816 9.184 10.336 7.776 10.336C6.90133 10.336 6.12267 10.5493 5.44 10.976C4.75733 11.4027 4.29867 11.9467 4.064 12.608C4.448 13.0133 4.64 13.4827 4.64 14.016C4.64 14.3787 4.512 14.72 4.256 15.04C4 15.36 3.62667 15.52 3.136 15.52C2.66667 15.52 2.29333 15.36 2.016 15.04C1.73867 14.6987 1.6 14.272 1.6 13.76C1.6 13.0987 1.856 12.4053 2.368 11.68C2.90133 10.9547 3.66933 10.3467 4.672 9.856C5.696 9.344 6.90133 9.088 8.288 9.088C10.208 9.088 11.808 9.55733 13.088 10.496C14.368 11.4133 15.008 12.8747 15.008 14.88C15.008 16.0107 14.5067 17.28 13.504 18.688C12.5227 20.096 10.9333 21.696 8.736 23.488C7.24267 24.7253 6.03733 25.8667 5.12 26.912C4.224 27.9573 3.70133 28.8427 3.552 29.568L9.216 29.728C9.68533 29.7493 10.3253 29.76 11.136 29.76C12.3093 29.76 13.1733 29.6107 13.728 29.312C14.2827 29.0133 14.56 28.416 14.56 27.52H15.52L15.328 32H1.472ZM27.1395 32.512C24.1742 32.512 22.0728 31.3813 20.8355 29.12C19.5982 26.8587 18.9795 24.1173 18.9795 20.896C18.9795 18.9547 19.2675 17.088 19.8435 15.296C20.4408 13.4827 21.3582 12 22.5955 10.848C23.8328 9.67467 25.3902 9.088 27.2675 9.088C29.2088 9.088 30.7768 9.664 31.9715 10.816C33.1662 11.9467 34.0195 13.3867 34.5315 15.136C35.0435 16.8853 35.2995 18.752 35.2995 20.736C35.2995 22.656 35.0115 24.512 34.4355 26.304C33.8808 28.096 32.9848 29.5787 31.7475 30.752C30.5315 31.9253 28.9955 32.512 27.1395 32.512ZM27.3315 31.264C28.9955 31.264 30.1902 30.3147 30.9155 28.416C31.6408 26.496 32.0035 24.16 32.0035 21.408C32.0035 18.336 31.6302 15.7227 30.8835 13.568C30.1582 11.392 28.9315 10.304 27.2035 10.304C25.4968 10.304 24.2488 11.2747 23.4595 13.216C22.6702 15.1573 22.2755 17.4933 22.2755 20.224C22.2755 23.0827 22.6488 25.6427 23.3955 27.904C24.1635 30.144 25.4755 31.264 27.3315 31.264ZM47.0145 32.512C44.0492 32.512 41.9478 31.3813 40.7105 29.12C39.4732 26.8587 38.8545 24.1173 38.8545 20.896C38.8545 18.9547 39.1425 17.088 39.7185 15.296C40.3158 13.4827 41.2332 12 42.4705 10.848C43.7078 9.67467 45.2652 9.088 47.1425 9.088C49.0838 9.088 50.6518 9.664 51.8465 10.816C53.0412 11.9467 53.8945 13.3867 54.4065 15.136C54.9185 16.8853 55.1745 18.752 55.1745 20.736C55.1745 22.656 54.8865 24.512 54.3105 26.304C53.7558 28.096 52.8598 29.5787 51.6225 30.752C50.4065 31.9253 48.8705 32.512 47.0145 32.512ZM47.2065 31.264C48.8705 31.264 50.0652 30.3147 50.7905 28.416C51.5158 26.496 51.8785 24.16 51.8785 21.408C51.8785 18.336 51.5052 15.7227 50.7585 13.568C50.0332 11.392 48.8065 10.304 47.0785 10.304C45.3718 10.304 44.1238 11.2747 43.3345 13.216C42.5452 15.1573 42.1505 17.4933 42.1505 20.224C42.1505 23.0827 42.5238 25.6427 43.2705 27.904C44.0385 30.144 45.3505 31.264 47.2065 31.264ZM64.1375 22.784L58.0575 22.816V20.896L64.1375 20.928V14.624H66.2175V20.928L72.2975 20.96V22.752L66.2175 22.784V29.376H64.1375V22.784Z" fill="#10375C"/>
<path d="M9.512 65.632C9.59733 65.632 9.672 65.6667 9.736 65.736L10.352 66.4C9.88267 66.944 9.312 67.368 8.64 67.672C7.97333 67.976 7.16533 68.128 6.216 68.128C5.39467 68.128 4.648 67.9867 3.976 67.704C3.304 67.416 2.73067 67.016 2.256 66.504C1.78133 65.9867 1.41333 65.368 1.152 64.648C0.890667 63.928 0.76 63.136 0.76 62.272C0.76 61.408 0.896 60.616 1.168 59.896C1.44 59.176 1.82133 58.5573 2.312 58.04C2.808 57.5227 3.4 57.1227 4.088 56.84C4.776 56.552 5.536 56.408 6.368 56.408C7.184 56.408 7.904 56.5387 8.528 56.8C9.152 57.0613 9.70133 57.416 10.176 57.864L9.664 58.576C9.632 58.6293 9.58933 58.6747 9.536 58.712C9.488 58.744 9.42133 58.76 9.336 58.76C9.24 58.76 9.12267 58.7093 8.984 58.608C8.84533 58.5013 8.664 58.384 8.44 58.256C8.216 58.128 7.936 58.0133 7.6 57.912C7.264 57.8053 6.85067 57.752 6.36 57.752C5.768 57.752 5.22667 57.856 4.736 58.064C4.24533 58.2667 3.82133 58.5627 3.464 58.952C3.112 59.3413 2.83733 59.816 2.64 60.376C2.44267 60.936 2.344 61.568 2.344 62.272C2.344 62.9867 2.44533 63.624 2.648 64.184C2.856 64.744 3.136 65.2187 3.488 65.608C3.84533 65.992 4.264 66.2853 4.744 66.488C5.22933 66.6907 5.752 66.792 6.312 66.792C6.65333 66.792 6.96 66.7733 7.232 66.736C7.50933 66.6933 7.76267 66.6293 7.992 66.544C8.22667 66.4587 8.44267 66.352 8.64 66.224C8.84267 66.0907 9.04267 65.9333 9.24 65.752C9.33067 65.672 9.42133 65.632 9.512 65.632ZM15.0753 59.768C15.6673 59.768 16.2006 59.8667 16.6753 60.064C17.1499 60.2613 17.5553 60.5413 17.8913 60.904C18.2273 61.2667 18.4833 61.7067 18.6593 62.224C18.8406 62.736 18.9313 63.3093 18.9313 63.944C18.9313 64.584 18.8406 65.16 18.6593 65.672C18.4833 66.184 18.2273 66.6213 17.8913 66.984C17.5553 67.3467 17.1499 67.6267 16.6753 67.824C16.2006 68.016 15.6673 68.112 15.0753 68.112C14.4779 68.112 13.9393 68.016 13.4593 67.824C12.9846 67.6267 12.5793 67.3467 12.2433 66.984C11.9073 66.6213 11.6486 66.184 11.4673 65.672C11.2913 65.16 11.2033 64.584 11.2033 63.944C11.2033 63.3093 11.2913 62.736 11.4673 62.224C11.6486 61.7067 11.9073 61.2667 12.2433 60.904C12.5793 60.5413 12.9846 60.2613 13.4593 60.064C13.9393 59.8667 14.4779 59.768 15.0753 59.768ZM15.0753 67C15.8753 67 16.4726 66.7333 16.8673 66.2C17.2619 65.6613 17.4593 64.912 17.4593 63.952C17.4593 62.9867 17.2619 62.2347 16.8673 61.696C16.4726 61.1573 15.8753 60.888 15.0753 60.888C14.6699 60.888 14.3153 60.9573 14.0113 61.096C13.7126 61.2347 13.4619 61.4347 13.2593 61.696C13.0619 61.9573 12.9126 62.28 12.8113 62.664C12.7153 63.0427 12.6673 63.472 12.6673 63.952C12.6673 64.912 12.8646 65.6613 13.2593 66.2C13.6593 66.7333 14.2646 67 15.0753 67ZM20.7374 68V59.896H21.5934C21.796 59.896 21.9214 59.9947 21.9694 60.192L22.0734 61.024C22.372 60.656 22.708 60.3547 23.0814 60.12C23.4547 59.8853 23.8867 59.768 24.3774 59.768C24.9214 59.768 25.3614 59.92 25.6974 60.224C26.0387 60.528 26.284 60.9387 26.4334 61.456C26.5507 61.1627 26.7 60.9093 26.8814 60.696C27.068 60.4827 27.276 60.3067 27.5054 60.168C27.7347 60.0293 27.9774 59.928 28.2334 59.864C28.4947 59.8 28.7587 59.768 29.0254 59.768C29.452 59.768 29.8307 59.8373 30.1614 59.976C30.4974 60.1093 30.78 60.3067 31.0094 60.568C31.244 60.8293 31.4227 61.152 31.5454 61.536C31.668 61.9147 31.7294 62.3493 31.7294 62.84V68H30.2974V62.84C30.2974 62.2053 30.1587 61.7253 29.8814 61.4C29.604 61.0693 29.204 60.904 28.6814 60.904C28.4467 60.904 28.2227 60.9467 28.0094 61.032C27.8014 61.112 27.6174 61.232 27.4574 61.392C27.2974 61.552 27.1694 61.7547 27.0734 62C26.9827 62.24 26.9374 62.52 26.9374 62.84V68H25.5054V62.84C25.5054 62.1893 25.3747 61.704 25.1134 61.384C24.852 61.064 24.4707 60.904 23.9694 60.904C23.6174 60.904 23.292 61 22.9934 61.192C22.6947 61.3787 22.42 61.6347 22.1694 61.96V68H20.7374ZM33.8936 68V59.896H34.7496C34.9523 59.896 35.0776 59.9947 35.1256 60.192L35.2296 61.024C35.5283 60.656 35.8643 60.3547 36.2376 60.12C36.611 59.8853 37.043 59.768 37.5336 59.768C38.0776 59.768 38.5176 59.92 38.8536 60.224C39.195 60.528 39.4403 60.9387 39.5896 61.456C39.707 61.1627 39.8563 60.9093 40.0376 60.696C40.2243 60.4827 40.4323 60.3067 40.6616 60.168C40.891 60.0293 41.1336 59.928 41.3896 59.864C41.651 59.8 41.915 59.768 42.1816 59.768C42.6083 59.768 42.987 59.8373 43.3176 59.976C43.6536 60.1093 43.9363 60.3067 44.1656 60.568C44.4003 60.8293 44.579 61.152 44.7016 61.536C44.8243 61.9147 44.8856 62.3493 44.8856 62.84V68H43.4536V62.84C43.4536 62.2053 43.315 61.7253 43.0376 61.4C42.7603 61.0693 42.3603 60.904 41.8376 60.904C41.603 60.904 41.379 60.9467 41.1656 61.032C40.9576 61.112 40.7736 61.232 40.6136 61.392C40.4536 61.552 40.3256 61.7547 40.2296 62C40.139 62.24 40.0936 62.52 40.0936 62.84V68H38.6616V62.84C38.6616 62.1893 38.531 61.704 38.2696 61.384C38.0083 61.064 37.627 60.904 37.1256 60.904C36.7736 60.904 36.4483 61 36.1496 61.192C35.851 61.3787 35.5763 61.6347 35.3256 61.96V68H33.8936ZM53.7139 59.896V68H52.8659C52.6632 68 52.5352 67.9013 52.4819 67.704L52.3699 66.832C52.0179 67.2213 51.6232 67.536 51.1859 67.776C50.7485 68.0107 50.2472 68.128 49.6819 68.128C49.2392 68.128 48.8472 68.056 48.5059 67.912C48.1699 67.7627 47.8872 67.5547 47.6579 67.288C47.4285 67.0213 47.2552 66.6987 47.1379 66.32C47.0259 65.9413 46.9699 65.5227 46.9699 65.064V59.896H48.3939V65.064C48.3939 65.6773 48.5325 66.152 48.8099 66.488C49.0925 66.824 49.5219 66.992 50.0979 66.992C50.5192 66.992 50.9112 66.8933 51.2739 66.696C51.6419 66.4933 51.9805 66.216 52.2899 65.864V59.896H53.7139ZM57.3158 61.072C57.4918 60.8747 57.6784 60.696 57.8758 60.536C58.0731 60.376 58.2811 60.24 58.4998 60.128C58.7238 60.0107 58.9584 59.9227 59.2038 59.864C59.4544 59.8 59.7238 59.768 60.0118 59.768C60.4544 59.768 60.8438 59.8427 61.1798 59.992C61.5211 60.136 61.8038 60.344 62.0278 60.616C62.2571 60.8827 62.4304 61.2053 62.5478 61.584C62.6651 61.9627 62.7238 62.3813 62.7238 62.84V68H61.2918V62.84C61.2918 62.2267 61.1504 61.752 60.8678 61.416C60.5904 61.0747 60.1664 60.904 59.5958 60.904C59.1744 60.904 58.7798 61.0053 58.4118 61.208C58.0491 61.4107 57.7131 61.6853 57.4038 62.032V68H55.9718V59.896H56.8278C57.0304 59.896 57.1558 59.9947 57.2038 60.192L57.3158 61.072ZM66.3976 59.896V68H64.9736V59.896H66.3976ZM66.7016 57.352C66.7016 57.4907 66.6723 57.6213 66.6136 57.744C66.5603 57.8613 66.4856 57.968 66.3896 58.064C66.299 58.1547 66.1896 58.2267 66.0616 58.28C65.939 58.3333 65.8083 58.36 65.6696 58.36C65.531 58.36 65.4003 58.3333 65.2776 58.28C65.1603 58.2267 65.0563 58.1547 64.9656 58.064C64.875 57.968 64.803 57.8613 64.7496 57.744C64.6963 57.6213 64.6696 57.4907 64.6696 57.352C64.6696 57.2133 64.6963 57.0827 64.7496 56.96C64.803 56.832 64.875 56.7227 64.9656 56.632C65.0563 56.536 65.1603 56.4613 65.2776 56.408C65.4003 56.3547 65.531 56.328 65.6696 56.328C65.8083 56.328 65.939 56.3547 66.0616 56.408C66.1896 56.4613 66.299 56.536 66.3896 56.632C66.4856 56.7227 66.5603 56.832 66.6136 56.96C66.6723 57.0827 66.7016 57.2133 66.7016 57.352ZM76.2574 68H74.8334V61.088H70.6574V65.952C70.6574 66.2933 70.74 66.5467 70.9054 66.712C71.0707 66.8773 71.284 66.96 71.5454 66.96C71.6947 66.96 71.8227 66.9413 71.9294 66.904C72.0414 66.8613 72.1374 66.816 72.2174 66.768C72.2974 66.72 72.364 66.6773 72.4174 66.64C72.476 66.5973 72.5267 66.576 72.5694 66.576C72.644 66.576 72.7107 66.6213 72.7694 66.712L73.1854 67.392C72.94 67.6213 72.644 67.8027 72.2974 67.936C71.9507 68.064 71.5934 68.128 71.2254 68.128C70.5854 68.128 70.092 67.9493 69.7454 67.592C69.404 67.2347 69.2334 66.72 69.2334 66.048V61.088H68.2574C68.172 61.088 68.1 61.064 68.0414 61.016C67.9827 60.9627 67.9534 60.8827 67.9534 60.776V60.208L69.2814 60.032L69.6094 57.536C69.6254 57.456 69.66 57.392 69.7134 57.344C69.772 57.2907 69.8467 57.264 69.9374 57.264H70.6574V60.056H76.2574V68ZM76.6094 57.296C76.6094 57.4347 76.58 57.5653 76.5214 57.688C76.468 57.8053 76.3934 57.9093 76.2974 58C76.2067 58.0907 76.1 58.1627 75.9774 58.216C75.8547 58.2693 75.724 58.296 75.5854 58.296C75.4467 58.296 75.316 58.2693 75.1934 58.216C75.076 58.1627 74.972 58.0907 74.8814 58C74.7907 57.9093 74.7187 57.8053 74.6654 57.688C74.612 57.5653 74.5854 57.4347 74.5854 57.296C74.5854 57.1573 74.612 57.0267 74.6654 56.904C74.7187 56.776 74.7907 56.6667 74.8814 56.576C74.972 56.48 75.076 56.4053 75.1934 56.352C75.316 56.2987 75.4467 56.272 75.5854 56.272C75.724 56.272 75.8547 56.2987 75.9774 56.352C76.1 56.4053 76.2067 56.48 76.2974 56.576C76.3934 56.6667 76.468 56.776 76.5214 56.904C76.58 57.0267 76.6094 57.1573 76.6094 57.296ZM84.0208 63.064C84.0208 62.7333 83.9728 62.432 83.8768 62.16C83.7861 61.8827 83.6501 61.6453 83.4688 61.448C83.2928 61.2453 83.0768 61.0907 82.8208 60.984C82.5648 60.872 82.2741 60.816 81.9488 60.816C81.2661 60.816 80.7248 61.016 80.3248 61.416C79.9301 61.8107 79.6848 62.36 79.5888 63.064H84.0208ZM85.1728 66.864C84.9968 67.0773 84.7861 67.264 84.5408 67.424C84.2954 67.5787 84.0314 67.7067 83.7488 67.808C83.4714 67.9093 83.1834 67.984 82.8848 68.032C82.5861 68.0853 82.2901 68.112 81.9968 68.112C81.4368 68.112 80.9194 68.0187 80.4448 67.832C79.9754 67.64 79.5674 67.3627 79.2208 67C78.8794 66.632 78.6128 66.1787 78.4208 65.64C78.2288 65.1013 78.1328 64.4827 78.1328 63.784C78.1328 63.2187 78.2181 62.6907 78.3888 62.2C78.5648 61.7093 78.8154 61.2853 79.1408 60.928C79.4661 60.5653 79.8634 60.2827 80.3328 60.08C80.8021 59.872 81.3301 59.768 81.9168 59.768C82.4021 59.768 82.8501 59.8507 83.2608 60.016C83.6768 60.176 84.0341 60.4107 84.3328 60.72C84.6368 61.024 84.8741 61.4027 85.0448 61.856C85.2154 62.304 85.3008 62.816 85.3008 63.392C85.3008 63.616 85.2768 63.7653 85.2288 63.84C85.1808 63.9147 85.0901 63.952 84.9568 63.952H79.5408C79.5568 64.464 79.6261 64.9093 79.7488 65.288C79.8768 65.6667 80.0528 65.984 80.2768 66.24C80.5008 66.4907 80.7674 66.68 81.0768 66.808C81.3861 66.9307 81.7328 66.992 82.1168 66.992C82.4741 66.992 82.7808 66.952 83.0368 66.872C83.2981 66.7867 83.5221 66.696 83.7088 66.6C83.8954 66.504 84.0501 66.416 84.1728 66.336C84.3008 66.2507 84.4101 66.208 84.5008 66.208C84.6181 66.208 84.7088 66.2533 84.7728 66.344L85.1728 66.864ZM91.7699 61.232C91.7059 61.3493 91.6072 61.408 91.4739 61.408C91.3939 61.408 91.3032 61.3787 91.2019 61.32C91.1005 61.2613 90.9752 61.1973 90.8259 61.128C90.6819 61.0533 90.5085 60.9867 90.3059 60.928C90.1032 60.864 89.8632 60.832 89.5859 60.832C89.3459 60.832 89.1299 60.864 88.9379 60.928C88.7459 60.9867 88.5805 61.0693 88.4419 61.176C88.3085 61.2827 88.2045 61.408 88.1299 61.552C88.0605 61.6907 88.0259 61.8427 88.0259 62.008C88.0259 62.216 88.0845 62.3893 88.2019 62.528C88.3245 62.6667 88.4845 62.7867 88.6819 62.888C88.8792 62.9893 89.1032 63.08 89.3539 63.16C89.6045 63.2347 89.8605 63.3173 90.1219 63.408C90.3885 63.4933 90.6472 63.5893 90.8979 63.696C91.1485 63.8027 91.3725 63.936 91.5699 64.096C91.7672 64.256 91.9245 64.4533 92.0419 64.688C92.1645 64.9173 92.2259 65.1947 92.2259 65.52C92.2259 65.8933 92.1592 66.24 92.0259 66.56C91.8925 66.8747 91.6952 67.1493 91.4339 67.384C91.1725 67.6133 90.8525 67.7947 90.4739 67.928C90.0952 68.0613 89.6579 68.128 89.1619 68.128C88.5965 68.128 88.0845 68.0373 87.6259 67.856C87.1672 67.6693 86.7779 67.432 86.4579 67.144L86.7939 66.6C86.8365 66.5307 86.8872 66.4773 86.9459 66.44C87.0045 66.4027 87.0792 66.384 87.1699 66.384C87.2659 66.384 87.3672 66.4213 87.4739 66.496C87.5805 66.5707 87.7085 66.6533 87.8579 66.744C88.0125 66.8347 88.1992 66.9173 88.4179 66.992C88.6365 67.0667 88.9085 67.104 89.2339 67.104C89.5112 67.104 89.7539 67.0693 89.9619 67C90.1699 66.9253 90.3432 66.8267 90.4819 66.704C90.6205 66.5813 90.7219 66.44 90.7859 66.28C90.8552 66.12 90.8899 65.9493 90.8899 65.768C90.8899 65.544 90.8285 65.36 90.7059 65.216C90.5885 65.0667 90.4312 64.9413 90.2339 64.84C90.0365 64.7333 89.8099 64.6427 89.5539 64.568C89.3032 64.488 89.0445 64.4053 88.7779 64.32C88.5165 64.2347 88.2579 64.1387 88.0019 64.032C87.7512 63.92 87.5272 63.7813 87.3299 63.616C87.1325 63.4507 86.9725 63.248 86.8499 63.008C86.7325 62.7627 86.6739 62.4667 86.6739 62.12C86.6739 61.8107 86.7379 61.5147 86.8659 61.232C86.9939 60.944 87.1805 60.6933 87.4259 60.48C87.6712 60.2613 87.9725 60.088 88.3299 59.96C88.6872 59.832 89.0952 59.768 89.5539 59.768C90.0872 59.768 90.5645 59.8533 90.9859 60.024C91.4125 60.1893 91.7805 60.4187 92.0899 60.712L91.7699 61.232ZM99.5695 59.896V68H98.1455V59.896H99.5695ZM99.8735 57.352C99.8735 57.4907 99.8442 57.6213 99.7855 57.744C99.7322 57.8613 99.6575 57.968 99.5615 58.064C99.4708 58.1547 99.3615 58.2267 99.2335 58.28C99.1108 58.3333 98.9802 58.36 98.8415 58.36C98.7028 58.36 98.5722 58.3333 98.4495 58.28C98.3322 58.2267 98.2282 58.1547 98.1375 58.064C98.0468 57.968 97.9748 57.8613 97.9215 57.744C97.8682 57.6213 97.8415 57.4907 97.8415 57.352C97.8415 57.2133 97.8682 57.0827 97.9215 56.96C97.9748 56.832 98.0468 56.7227 98.1375 56.632C98.2282 56.536 98.3322 56.4613 98.4495 56.408C98.5722 56.3547 98.7028 56.328 98.8415 56.328C98.9802 56.328 99.1108 56.3547 99.2335 56.408C99.3615 56.4613 99.4708 56.536 99.5615 56.632C99.6575 56.7227 99.7322 56.832 99.7855 56.96C99.8442 57.0827 99.8735 57.2133 99.8735 57.352ZM103.253 61.072C103.429 60.8747 103.616 60.696 103.813 60.536C104.011 60.376 104.219 60.24 104.437 60.128C104.661 60.0107 104.896 59.9227 105.141 59.864C105.392 59.8 105.661 59.768 105.949 59.768C106.392 59.768 106.781 59.8427 107.117 59.992C107.459 60.136 107.741 60.344 107.965 60.616C108.195 60.8827 108.368 61.2053 108.485 61.584C108.603 61.9627 108.661 62.3813 108.661 62.84V68H107.229V62.84C107.229 62.2267 107.088 61.752 106.805 61.416C106.528 61.0747 106.104 60.904 105.533 60.904C105.112 60.904 104.717 61.0053 104.349 61.208C103.987 61.4107 103.651 61.6853 103.341 62.032V68H101.909V59.896H102.765C102.968 59.896 103.093 59.9947 103.141 60.192L103.253 61.072ZM115.551 61.232C115.487 61.3493 115.388 61.408 115.255 61.408C115.175 61.408 115.084 61.3787 114.983 61.32C114.882 61.2613 114.756 61.1973 114.607 61.128C114.463 61.0533 114.29 60.9867 114.087 60.928C113.884 60.864 113.644 60.832 113.367 60.832C113.127 60.832 112.911 60.864 112.719 60.928C112.527 60.9867 112.362 61.0693 112.223 61.176C112.09 61.2827 111.986 61.408 111.911 61.552C111.842 61.6907 111.807 61.8427 111.807 62.008C111.807 62.216 111.866 62.3893 111.983 62.528C112.106 62.6667 112.266 62.7867 112.463 62.888C112.66 62.9893 112.884 63.08 113.135 63.16C113.386 63.2347 113.642 63.3173 113.903 63.408C114.17 63.4933 114.428 63.5893 114.679 63.696C114.93 63.8027 115.154 63.936 115.351 64.096C115.548 64.256 115.706 64.4533 115.823 64.688C115.946 64.9173 116.007 65.1947 116.007 65.52C116.007 65.8933 115.94 66.24 115.807 66.56C115.674 66.8747 115.476 67.1493 115.215 67.384C114.954 67.6133 114.634 67.7947 114.255 67.928C113.876 68.0613 113.439 68.128 112.943 68.128C112.378 68.128 111.866 68.0373 111.407 67.856C110.948 67.6693 110.559 67.432 110.239 67.144L110.575 66.6C110.618 66.5307 110.668 66.4773 110.727 66.44C110.786 66.4027 110.86 66.384 110.951 66.384C111.047 66.384 111.148 66.4213 111.255 66.496C111.362 66.5707 111.49 66.6533 111.639 66.744C111.794 66.8347 111.98 66.9173 112.199 66.992C112.418 67.0667 112.69 67.104 113.015 67.104C113.292 67.104 113.535 67.0693 113.743 67C113.951 66.9253 114.124 66.8267 114.263 66.704C114.402 66.5813 114.503 66.44 114.567 66.28C114.636 66.12 114.671 65.9493 114.671 65.768C114.671 65.544 114.61 65.36 114.487 65.216C114.37 65.0667 114.212 64.9413 114.015 64.84C113.818 64.7333 113.591 64.6427 113.335 64.568C113.084 64.488 112.826 64.4053 112.559 64.32C112.298 64.2347 112.039 64.1387 111.783 64.032C111.532 63.92 111.308 63.7813 111.111 63.616C110.914 63.4507 110.754 63.248 110.631 63.008C110.514 62.7627 110.455 62.4667 110.455 62.12C110.455 61.8107 110.519 61.5147 110.647 61.232C110.775 60.944 110.962 60.6933 111.207 60.48C111.452 60.2613 111.754 60.088 112.111 59.96C112.468 59.832 112.876 59.768 113.335 59.768C113.868 59.768 114.346 59.8533 114.767 60.024C115.194 60.1893 115.562 60.4187 115.871 60.712L115.551 61.232ZM119.257 59.896V68H117.833V59.896H119.257ZM119.561 57.352C119.561 57.4907 119.532 57.6213 119.473 57.744C119.42 57.8613 119.345 57.968 119.249 58.064C119.158 58.1547 119.049 58.2267 118.921 58.28C118.798 58.3333 118.668 58.36 118.529 58.36C118.39 58.36 118.26 58.3333 118.137 58.28C118.02 58.2267 117.916 58.1547 117.825 58.064C117.734 57.968 117.662 57.8613 117.609 57.744C117.556 57.6213 117.529 57.4907 117.529 57.352C117.529 57.2133 117.556 57.0827 117.609 56.96C117.662 56.832 117.734 56.7227 117.825 56.632C117.916 56.536 118.02 56.4613 118.137 56.408C118.26 56.3547 118.39 56.328 118.529 56.328C118.668 56.328 118.798 56.3547 118.921 56.408C119.049 56.4613 119.158 56.536 119.249 56.632C119.345 56.7227 119.42 56.832 119.473 56.96C119.532 57.0827 119.561 57.2133 119.561 57.352ZM126.877 61.824C126.61 61.4667 126.322 61.2187 126.013 61.08C125.703 60.936 125.357 60.864 124.973 60.864C124.221 60.864 123.642 61.1333 123.237 61.672C122.831 62.2107 122.629 62.9787 122.629 63.976C122.629 64.504 122.674 64.9573 122.765 65.336C122.855 65.7093 122.989 66.0187 123.165 66.264C123.341 66.504 123.557 66.68 123.813 66.792C124.069 66.904 124.359 66.96 124.685 66.96C125.154 66.96 125.562 66.8533 125.909 66.64C126.261 66.4267 126.583 66.1253 126.877 65.736V61.824ZM128.301 56.216V68H127.453C127.25 68 127.122 67.9013 127.069 67.704L126.941 66.72C126.594 67.136 126.199 67.472 125.757 67.728C125.314 67.984 124.802 68.112 124.221 68.112C123.757 68.112 123.335 68.024 122.957 67.848C122.578 67.6667 122.255 67.4027 121.989 67.056C121.722 66.7093 121.517 66.2773 121.373 65.76C121.229 65.2427 121.157 64.648 121.157 63.976C121.157 63.3787 121.237 62.824 121.397 62.312C121.557 61.7947 121.786 61.3467 122.085 60.968C122.383 60.5893 122.749 60.2933 123.181 60.08C123.618 59.8613 124.109 59.752 124.653 59.752C125.149 59.752 125.573 59.8373 125.925 60.008C126.282 60.1733 126.599 60.4053 126.877 60.704V56.216H128.301ZM135.974 63.064C135.974 62.7333 135.926 62.432 135.83 62.16C135.739 61.8827 135.603 61.6453 135.422 61.448C135.246 61.2453 135.03 61.0907 134.774 60.984C134.518 60.872 134.227 60.816 133.902 60.816C133.219 60.816 132.678 61.016 132.278 61.416C131.883 61.8107 131.638 62.36 131.542 63.064H135.974ZM137.126 66.864C136.95 67.0773 136.739 67.264 136.494 67.424C136.249 67.5787 135.985 67.7067 135.702 67.808C135.425 67.9093 135.137 67.984 134.838 68.032C134.539 68.0853 134.243 68.112 133.95 68.112C133.39 68.112 132.873 68.0187 132.398 67.832C131.929 67.64 131.521 67.3627 131.174 67C130.833 66.632 130.566 66.1787 130.374 65.64C130.182 65.1013 130.086 64.4827 130.086 63.784C130.086 63.2187 130.171 62.6907 130.342 62.2C130.518 61.7093 130.769 61.2853 131.094 60.928C131.419 60.5653 131.817 60.2827 132.286 60.08C132.755 59.872 133.283 59.768 133.87 59.768C134.355 59.768 134.803 59.8507 135.214 60.016C135.63 60.176 135.987 60.4107 136.286 60.72C136.59 61.024 136.827 61.4027 136.998 61.856C137.169 62.304 137.254 62.816 137.254 63.392C137.254 63.616 137.23 63.7653 137.182 63.84C137.134 63.9147 137.043 63.952 136.91 63.952H131.494C131.51 64.464 131.579 64.9093 131.702 65.288C131.83 65.6667 132.006 65.984 132.23 66.24C132.454 66.4907 132.721 66.68 133.03 66.808C133.339 66.9307 133.686 66.992 134.07 66.992C134.427 66.992 134.734 66.952 134.99 66.872C135.251 66.7867 135.475 66.696 135.662 66.6C135.849 66.504 136.003 66.416 136.126 66.336C136.254 66.2507 136.363 66.208 136.454 66.208C136.571 66.208 136.662 66.2533 136.726 66.344L137.126 66.864Z" fill="#9A9A9A"/>
</svg>
